

    
<svg viewBox="0 0 14 8" fill="none" xmlns="http://www.w3.org/2000/svg">
    <symbol id="cabinet" viewBox="0 0 20 20" fill="none">
        <path d="M17.0711 12.9289C15.9819 11.8398 14.6855 11.0335 13.2711 10.5454C14.786 9.50199 15.7812 7.75578 15.7812 5.78125C15.7812 2.59348 13.1878 0 10 0C6.81223 0 4.21875 2.59348 4.21875 5.78125C4.21875 7.75578 5.21402 9.50199 6.72898 10.5454C5.31453 11.0335 4.01813 11.8398 2.92895 12.9289C1.0402 14.8177 0 17.3289 0 20H1.5625C1.5625 15.3475 5.34754 11.5625 10 11.5625C14.6525 11.5625 18.4375 15.3475 18.4375 20H20C20 17.3289 18.9598 14.8177 17.0711 12.9289ZM10 10C7.67379 10 5.78125 8.1075 5.78125 5.78125C5.78125 3.455 7.67379 1.5625 10 1.5625C12.3262 1.5625 14.2188 3.455 14.2188 5.78125C14.2188 8.1075 12.3262 10 10 10Z" fill="#0F73F6"/>
    </symbol>

    <symbol id="cart" viewBox="0 0 16 19" fill="none">
        <path d="M1.52616 5.66849C1.40575 5.66849 1.30814 5.7661 1.30814 5.88651V17.2237C1.30814 17.3442 1.40575 17.4417 1.52616 17.4417H13.7355C13.8559 17.4417 13.9535 17.3442 13.9535 17.2237V5.88651C13.9535 5.7661 13.8559 5.66849 13.7355 5.66849H1.52616ZM0 5.88651C0 5.04364 0.683285 4.36035 1.52616 4.36035H13.7355C14.5783 4.36035 15.2616 5.04364 15.2616 5.88651V17.2237C15.2616 18.0666 14.5783 18.7499 13.7355 18.7499H1.52616C0.683285 18.7499 0 18.0666 0 17.2237V5.88651Z" fill="white"/>
        <path d="M7.63022 1.30814C6.30569 1.30814 5.23197 2.38188 5.23197 3.7064V6.75872C5.23197 7.11995 4.93913 7.41279 4.5779 7.41279C4.21667 7.41279 3.92383 7.11995 3.92383 6.75872V3.7064C3.92383 1.65941 5.58324 0 7.63022 0C9.6772 0 11.3366 1.65941 11.3366 3.7064V6.75872C11.3366 7.11995 11.0438 7.41279 10.6825 7.41279C10.3213 7.41279 10.0285 7.11995 10.0285 6.75872V3.7064C10.0285 2.38188 8.95476 1.30814 7.63022 1.30814Z" fill="white"/>
    </symbol>

    <symbol id="arrow-right" viewBox="0 0 12 22" fill="none">
        <path d="M12.0001 11.0001C12.0001 10.7443 11.9023 10.4883 11.7071 10.2931L1.70706 0.293063C1.31631 -0.0976875 0.683562 -0.0976875 0.293062 0.293063C-0.0974385 0.683813 -0.0976885 1.31656 0.293062 1.70706L9.58606 11.0001L0.293063 20.2931C-0.0976875 20.6838 -0.0976875 21.3166 0.293063 21.7071C0.683813 22.0976 1.31656 22.0978 1.70706 21.7071L11.7071 11.7071C11.9023 11.5118 12.0001 11.2558 12.0001 11.0001Z" fill="#0F73F6"/>
    </symbol>

    <symbol id="arrow-left" viewBox="0 0 12 22" fill="none">
        <path d="M0 11.0001C1.11792e-08 10.7443 0.0977493 10.4883 0.292999 10.2931L10.293 0.293063C10.6838 -0.0976875 11.3165 -0.0976875 11.707 0.293063C12.0975 0.683813 12.0978 1.31656 11.707 1.70706L2.414 11.0001L11.707 20.2931C12.0978 20.6838 12.0978 21.3166 11.707 21.7071C11.3163 22.0976 10.6835 22.0978 10.293 21.7071L0.292999 11.7071C0.0977492 11.5118 -1.11792e-08 11.2558 0 11.0001Z" fill="#0F73F6"/>
    </symbol>

    <symbol id="bag" viewBox="0 0 24 24" fill="none">
        <path d="M5.52616 8.66849C5.40575 8.66849 5.30814 8.7661 5.30814 8.88651V20.2237C5.30814 20.3442 5.40575 20.4417 5.52616 20.4417H17.7355C17.8559 20.4417 17.9535 20.3442 17.9535 20.2237V8.88651C17.9535 8.7661 17.8559 8.66849 17.7355 8.66849H5.52616ZM4 8.88651C4 8.04364 4.68328 7.36035 5.52616 7.36035H17.7355C18.5783 7.36035 19.2616 8.04364 19.2616 8.88651V20.2237C19.2616 21.0666 18.5783 21.7499 17.7355 21.7499H5.52616C4.68328 21.7499 4 21.0666 4 20.2237V8.88651Z" fill="#0F73F6"/>
        <path d="M11.6302 4.30814C10.3057 4.30814 9.23197 5.38188 9.23197 6.7064V9.75872C9.23197 10.12 8.93913 10.4128 8.5779 10.4128C8.21667 10.4128 7.92383 10.12 7.92383 9.75872V6.7064C7.92383 4.65941 9.58324 3 11.6302 3C13.6772 3 15.3366 4.65941 15.3366 6.7064V9.75872C15.3366 10.12 15.0438 10.4128 14.6825 10.4128C14.3213 10.4128 14.0285 10.12 14.0285 9.75872V6.7064C14.0285 5.38188 12.9548 4.30814 11.6302 4.30814Z" fill="#0F73F6"/>
    </symbol>

    <symbol id="dot-blue" viewBox="0 0 16 16" fill="none">
        <circle cx="8" cy="8" r="8" fill="#0F73F6"/>
    </symbol>

    <symbol id="dot-grey" viewBox="0 0 16 16" fill="none">
        <circle cx="8" cy="8" r="8" fill="#222222" fill-opacity="0.15"/>
    </symbol>

    <symbol id="arrow-left-black" viewBox="0 0 24 24" fill="none">
        <path d="M8.125 11.75C8.125 11.5902 8.18609 11.4302 8.30812 11.3082L14.5581 5.05816C14.8023 4.81395 15.1978 4.81395 15.4419 5.05816C15.6859 5.30238 15.6861 5.69785 15.4419 5.94191L9.63375 11.75L15.4419 17.5582C15.6861 17.8024 15.6861 18.1979 15.4419 18.4419C15.1977 18.686 14.8022 18.6861 14.5581 18.4419L8.30812 12.1919C8.18609 12.0699 8.125 11.9099 8.125 11.75Z" fill="#222222"/>
    </symbol>

    <symbol id="arrow-right-black" viewBox="0 0 24 24" fill="none">
        <path d="M15.625 11.75C15.625 11.5902 15.5639 11.4302 15.4419 11.3082L9.19191 5.05816C8.9477 4.81395 8.55223 4.81395 8.30816 5.05816C8.0641 5.30238 8.06395 5.69785 8.30816 5.94191L14.1163 11.75L8.30816 17.5582C8.06395 17.8024 8.06395 18.1979 8.30816 18.4419C8.55238 18.686 8.94785 18.6861 9.19191 18.4419L15.4419 12.1919C15.5639 12.0699 15.625 11.9099 15.625 11.75Z" fill="#222222"/>
    </symbol>

    <symbol id="telephone" viewBox="0 0 24 24" fill="none">
        <g clip-path="url(#clip0_64_6133)">
            <path d="M20.6789 16.7041C19.2291 15.4641 17.7577 14.713 16.3257 15.9511L15.4706 16.6995C14.8449 17.2427 13.6817 19.7808 9.1842 14.6071C4.68766 9.43998 7.36348 8.63546 7.99006 8.09692L8.84984 7.34765C10.2744 6.10667 9.73679 4.54445 8.70936 2.93633L8.08934 1.96228C7.05722 0.357912 5.93332 -0.695747 4.50502 0.543356L3.73328 1.2177C3.10202 1.67756 1.33749 3.17235 0.909472 6.01208C0.39435 9.41938 2.01933 13.3212 5.74225 17.6023C9.4605 21.8853 13.101 24.0367 16.5495 23.9992C19.4155 23.9683 21.1463 22.4304 21.6876 21.8713L22.4622 21.196C23.8867 19.9578 23.0016 18.6972 21.5509 17.4543L20.6789 16.7041Z" fill="#0F73F6"/>
        </g>

        <defs>
            <clipPath id="clip0_64_6133">
                <rect width="24" height="24" fill="white"/>
            </clipPath>
        </defs>
    </symbol>

    <symbol id="mail" viewBox="0 0 24 24" fill="none">
        <g clip-path="url(#clip0_64_6128)">
            <path d="M14.0057 14.7041C13.4086 15.1021 12.7151 15.3126 12 15.3126C11.285 15.3126 10.5914 15.1021 9.99431 14.7041L0.159797 8.14752C0.105234 8.11115 0.0520781 8.07323 0 8.03423V18.7778C0 20.0096 0.999609 20.9872 2.20936 20.9872H21.7906C23.0224 20.9872 24 19.9876 24 18.7778V8.03418C23.9478 8.07327 23.8945 8.11129 23.8398 8.14771L14.0057 14.7041Z" fill="#0F73F6"/>
            <path d="M0.939844 6.97795L10.7744 13.5345C11.1466 13.7827 11.5733 13.9068 12 13.9068C12.4267 13.9068 12.8534 13.7827 13.2256 13.5345L23.0602 6.97795C23.6487 6.58584 24 5.92959 24 5.2213C24 4.00345 23.0092 3.0127 21.7914 3.0127H2.20861C0.990797 3.01274 0 4.00349 0 5.22248C0 5.92959 0.351375 6.58584 0.939844 6.97795Z" fill="#0F73F6"/>
        </g>

        <defs>
            <clipPath id="clip0_64_6128">
                <rect width="24" height="24" fill="white"/>
            </clipPath>
        </defs>
    </symbol>

    <symbol id="clock" viewBox="0 0 24 24" fill="none">
        <path d="M12 1C9.82441 1 7.69767 1.64514 5.88873 2.85383C4.07979 4.06253 2.66989 5.78049 1.83733 7.79048C1.00477 9.80047 0.786929 12.0122 1.21137 14.146C1.6358 16.2798 2.68345 18.2398 4.22183 19.7782C5.76021 21.3166 7.72022 22.3642 9.85401 22.7886C11.9878 23.2131 14.1995 22.9952 16.2095 22.1627C18.2195 21.3301 19.9375 19.9202 21.1462 18.1113C22.3549 16.3023 23 14.1756 23 12C22.9966 9.08367 21.8365 6.28778 19.7744 4.22563C17.7122 2.16347 14.9163 1.00344 12 1ZM15.707 15.707C15.5195 15.8945 15.2652 15.9998 15 15.9998C14.7348 15.9998 14.4805 15.8945 14.293 15.707L11.293 12.707C11.1055 12.5195 11.0001 12.2652 11 12V6C11 5.73478 11.1054 5.48043 11.2929 5.29289C11.4804 5.10536 11.7348 5 12 5C12.2652 5 12.5196 5.10536 12.7071 5.29289C12.8946 5.48043 13 5.73478 13 6V11.586L15.707 14.293C15.8945 14.4805 15.9998 14.7348 15.9998 15C15.9998 15.2652 15.8945 15.5195 15.707 15.707Z" fill="#0F73F6"/>
    </symbol>

    <symbol id="calendar" viewBox="0 0 24 24" fill="none">
        <path d="M7.5 2.5C7.5 1.94772 7.05228 1.5 6.5 1.5C5.94772 1.5 5.5 1.94772 5.5 2.5V3.5C5.5 4.05228 5.94772 4.5 6.5 4.5C7.05228 4.5 7.5 4.05228 7.5 3.5V2.5Z" fill="#0F73F6"/>
        <path d="M18.5 2.5C18.5 1.94772 18.0523 1.5 17.5 1.5C16.9477 1.5 16.5 1.94772 16.5 2.5V3.5C16.5 4.05228 16.9477 4.5 17.5 4.5C18.0523 4.5 18.5 4.05228 18.5 3.5V2.5Z" fill="#0F73F6"/>
        <path d="M2 9V20.5C2 21.6045 2.8955 22.5 4 22.5H20C21.1045 22.5 22 21.6045 22 20.5V9H2ZM8 19C8 19.5525 7.5525 20 7 20H6C5.4475 20 5 19.5525 5 19V18C5 17.4475 5.4475 17 6 17H7C7.5525 17 8 17.4475 8 18V19ZM8 13.5C8 14.0525 7.5525 14.5 7 14.5H6C5.4475 14.5 5 14.0525 5 13.5V12.5C5 11.9475 5.4475 11.5 6 11.5H7C7.5525 11.5 8 11.9475 8 12.5V13.5ZM13.5 19C13.5 19.5525 13.0525 20 12.5 20H11.5C10.9475 20 10.5 19.5525 10.5 19V18C10.5 17.4475 10.9475 17 11.5 17H12.5C13.0525 17 13.5 17.4475 13.5 18V19ZM13.5 13.5C13.5 14.0525 13.0525 14.5 12.5 14.5H11.5C10.9475 14.5 10.5 14.0525 10.5 13.5V12.5C10.5 11.9475 10.9475 11.5 11.5 11.5H12.5C13.0525 11.5 13.5 11.9475 13.5 12.5V13.5ZM19 19C19 19.5525 18.5525 20 18 20H17C16.4475 20 16 19.5525 16 19V18C16 17.4475 16.4475 17 17 17H18C18.5525 17 19 17.4475 19 18V19ZM19 13.5C19 14.0525 18.5525 14.5 18 14.5H17C16.4475 14.5 16 14.0525 16 13.5V12.5C16 11.9475 16.4475 11.5 17 11.5H18C18.5525 11.5 19 11.9475 19 12.5V13.5Z" fill="#0F73F6"/>
        <path d="M22 8V5C22 3.8955 21.1045 3 20 3H19.5V3.5C19.5 4.603 18.603 5.5 17.5 5.5C16.397 5.5 15.5 4.603 15.5 3.5V3H8.5V3.5C8.5 4.603 7.603 5.5 6.5 5.5C5.397 5.5 4.5 4.603 4.5 3.5V3H4C2.8955 3 2 3.8955 2 5V8H22Z" fill="#0F73F6"/>
    </symbol>

    <symbol id="folder" viewBox="0 0 24 24" fill="none">
        <path d="M22.8385 9.92462C22.7251 9.71989 22.5588 9.54936 22.3569 9.43087C22.1551 9.31237 21.9251 9.25024 21.6911 9.25098H9.25182C8.83243 9.25097 8.42434 9.38698 8.08882 9.63861C7.7533 9.89024 7.50845 10.2439 7.39102 10.6465L4.92887 19.0882C4.79925 19.5326 4.52899 19.9229 4.15866 20.2007C3.78833 20.4784 3.33791 20.6286 2.875 20.6285H18.5182C18.9812 20.6285 19.4317 20.4784 19.8021 20.2006C20.1725 19.9228 20.4428 19.5323 20.5725 19.0879L22.9361 10.9843C22.9911 10.81 23.0108 10.6266 22.994 10.4446C22.9772 10.2627 22.9244 10.0859 22.8385 9.92462Z" fill="#0F73F6"/>
        <path d="M4.08735 18.8433L6.55103 10.4021C6.72266 9.81851 7.07823 9.30601 7.56475 8.94092C8.05128 8.57582 8.64274 8.37768 9.25101 8.37599H20.3791V7.93839C20.3791 7.47415 20.1947 7.02893 19.8665 6.70067C19.5382 6.37241 19.093 6.18799 18.6287 6.18799H11.9579C11.8275 6.18799 11.6987 6.15893 11.5809 6.10291C11.4632 6.0469 11.3594 5.96534 11.2771 5.86417L10.4169 4.80645C10.212 4.5545 9.95349 4.35139 9.66022 4.21189C9.36695 4.07239 9.04627 4.00001 8.72152 4H3.75039C3.28616 4 2.84094 4.18442 2.51268 4.51268C2.18442 4.84094 2 5.28616 2 5.75039L2 18.8784C2 19.1105 2.09221 19.3331 2.25634 19.4972C2.42047 19.6613 2.64308 19.7536 2.8752 19.7536C3.14837 19.7528 3.41398 19.6638 3.63243 19.4997C3.85087 19.3357 4.01044 19.1055 4.08735 18.8433Z" fill="#0F73F6"/>
    </symbol>


    <symbol id="file-dimensions" viewBox="0 0 24 24" fill="none">
        <path fill-rule="evenodd" clip-rule="evenodd" d="M5.90625 2H18.0938C19.1291 2.00199 20.1216 2.41418 20.8537 3.14632C21.5858 3.87845 21.998 4.87086 22 5.90625V18.0938C21.998 19.1291 21.5858 20.1216 20.8537 20.8537C20.1216 21.5858 19.1291 21.998 18.0938 22H5.90625C4.87086 21.998 3.87845 21.5858 3.14632 20.8537C2.41418 20.1216 2.00199 19.1291 2 18.0938L2 5.90625C2.00199 4.87086 2.41418 3.87845 3.14632 3.14632C3.87845 2.41418 4.87086 2.00199 5.90625 2ZM6.14062 17.127C6.14068 17.3212 6.21786 17.5075 6.35521 17.6448C6.49255 17.7822 6.67882 17.8593 6.87305 17.8594H10.7064C10.8032 17.8604 10.8992 17.8422 10.989 17.8058C11.0787 17.7695 11.1604 17.7157 11.2292 17.6475C11.298 17.5794 11.3526 17.4984 11.3899 17.409C11.4272 17.3196 11.4464 17.2238 11.4464 17.127C11.4464 17.0301 11.4272 16.9343 11.3899 16.8449C11.3526 16.7555 11.298 16.6745 11.2292 16.6064C11.1604 16.5382 11.0787 16.4845 10.989 16.4481C10.8992 16.4117 10.8032 16.3935 10.7064 16.3945H8.64133L11.3679 13.668C11.5053 13.5306 11.5825 13.3443 11.5825 13.15C11.5825 12.9557 11.5054 12.7694 11.368 12.632C11.3 12.564 11.2192 12.51 11.1304 12.4732C11.0415 12.4364 10.9462 12.4174 10.85 12.4174C10.6558 12.4174 10.4694 12.4946 10.332 12.6319L7.60547 15.3589V13.2936C7.60348 13.1007 7.52543 12.9163 7.38829 12.7806C7.25115 12.6449 7.066 12.5687 6.87305 12.5687C6.6801 12.5687 6.49494 12.6449 6.3578 12.7806C6.22066 12.9163 6.14262 13.1007 6.14062 13.2936V17.127ZM17.8594 6.87309C17.8593 6.67884 17.7822 6.49257 17.6448 6.35522C17.5075 6.21786 17.3212 6.14068 17.127 6.14062H13.2936C13.1968 6.13963 13.1008 6.15783 13.011 6.19419C12.9213 6.23055 12.8396 6.28434 12.7708 6.35245C12.702 6.42056 12.6474 6.50164 12.6101 6.591C12.5728 6.68036 12.5536 6.77622 12.5536 6.87305C12.5536 6.96987 12.5728 7.06574 12.6101 7.15509C12.6474 7.24445 12.702 7.32553 12.7708 7.39364C12.8396 7.46175 12.9213 7.51554 13.011 7.5519C13.1008 7.58826 13.1968 7.60647 13.2936 7.60547H15.3589L12.6319 10.332C12.4945 10.4694 12.4173 10.6558 12.4173 10.8501C12.4173 11.0444 12.4945 11.2307 12.6319 11.3681C12.7693 11.5055 12.9556 11.5827 13.1499 11.5827C13.3442 11.5827 13.5306 11.5055 13.668 11.3681L16.3945 8.64113V10.7064C16.3965 10.8993 16.4746 11.0837 16.6117 11.2194C16.7488 11.3552 16.934 11.4313 17.127 11.4313C17.3199 11.4313 17.5051 11.3552 17.6422 11.2194C17.7793 11.0837 17.8574 10.8993 17.8594 10.7064V6.87309Z" fill="#0F73F6"/>
    </symbol>

    <symbol id="planet" viewBox="0 0 24 24" fill="none">
        <path fill-rule="evenodd" clip-rule="evenodd" d="M12.3604 2V6.60953C13.6104 6.5919 14.8553 6.44543 16.0753 6.1722C15.2314 3.8141 13.8902 2.21736 12.3604 2ZM17.0038 11.6255H12.3604V7.32463C13.6863 7.30717 15.0069 7.1497 16.2998 6.85482C16.7487 8.406 16.9856 10.0108 17.0038 11.6255ZM22.0065 12.3406H17.7195C17.7032 14.0145 17.4604 15.6785 16.9976 17.2872C17.9414 17.5393 18.8522 17.9018 19.7111 18.3671C21.1214 16.6673 21.9287 14.548 22.0065 12.3406ZM16.0753 17.7939C15.2314 20.152 13.8902 21.7487 12.3604 21.9661V17.3566C13.6104 17.374 14.8553 17.5207 16.0753 17.7939ZM15.0748 21.5096C14.9854 21.5385 14.8953 21.5649 14.8049 21.5911L14.7288 21.614C14.6792 21.629 14.6292 21.6441 14.5786 21.6583C14.5642 21.6621 14.5497 21.6655 14.5352 21.6689C14.5207 21.6723 14.5062 21.6757 14.4917 21.6794C15.55 20.6518 16.3355 19.3763 16.7768 17.9688C17.6255 18.1926 18.4469 18.5088 19.2268 18.9116C19.2213 18.9172 19.216 18.923 19.2108 18.9288C19.2057 18.9344 19.2007 18.9399 19.1955 18.9453C19.1546 18.9876 19.1126 19.0288 19.0706 19.0699L19.0704 19.0701L19.0232 19.1165L19.0001 19.1392L19.0001 19.1393L19.0001 19.1393L19.0001 19.1393L19.0001 19.1393L19 19.1393L19 19.1394L19 19.1394L19 19.1394L18.9999 19.1394L18.9999 19.1395L18.9999 19.1395L18.9999 19.1395L18.9999 19.1395C18.9411 19.1974 18.8822 19.2555 18.8219 19.3117C18.7741 19.3563 18.7251 19.3997 18.6761 19.4431L18.6759 19.4432L18.6407 19.4744L18.6115 19.5003C18.5521 19.5531 18.4929 19.6057 18.4315 19.6567C18.3739 19.7047 18.3156 19.7512 18.2571 19.7978L18.257 19.7979L18.2568 19.7981L18.2416 19.8102C18.1698 19.8674 18.0965 19.9245 18.0249 19.9797C17.96 20.0275 17.8938 20.075 17.8273 20.1227C17.7533 20.1756 17.6789 20.2285 17.6035 20.2793C17.5359 20.325 17.4675 20.3694 17.3989 20.413C17.3222 20.4607 17.2451 20.5083 17.1675 20.556C17.0979 20.5979 17.0289 20.6386 16.9573 20.6791C16.8783 20.7241 16.7986 20.7679 16.7185 20.8109C16.6469 20.8491 16.5755 20.8863 16.504 20.9228C16.4224 20.964 16.3402 21.0036 16.2576 21.0425C16.1846 21.0766 16.1117 21.1105 16.0382 21.1428C15.9673 21.1729 15.8959 21.2029 15.8242 21.233L15.7838 21.25L15.7765 21.2529L15.7765 21.2529L15.7765 21.2529L15.7765 21.2529L15.7765 21.2529L15.7764 21.2529L15.7764 21.2529L15.7764 21.2529L15.7764 21.2529L15.7764 21.253L15.7764 21.253L15.7763 21.253L15.7763 21.253L15.7763 21.253L15.7763 21.253C15.705 21.282 15.6338 21.311 15.5619 21.3383C15.4746 21.3715 15.387 21.4027 15.299 21.4331L15.2833 21.4386C15.2141 21.4628 15.1449 21.487 15.0748 21.5096ZM16.2998 17.1114C15.0069 16.8166 13.6863 16.6591 12.3604 16.6415V12.3406H17.0038C16.9856 13.9553 16.7487 15.5603 16.2998 17.1114ZM19.7111 5.59904C18.8522 6.06431 17.9414 6.42674 16.9976 6.67884C17.4604 8.28763 17.7032 9.95159 17.7195 11.6255H22.0065C21.9285 9.41824 21.1212 7.29896 19.7111 5.59904ZM19.2091 5.03629C19.2154 5.04318 19.2216 5.05006 19.2281 5.05661C18.4475 5.46007 17.6249 5.77642 16.7754 6.00024C16.3338 4.59257 15.5486 3.31723 14.4902 2.28963C14.503 2.29295 14.5159 2.29599 14.5287 2.29903L14.5288 2.29903C14.545 2.30288 14.5613 2.30672 14.5774 2.31111C14.6456 2.32917 14.7135 2.3491 14.7811 2.36895L14.8017 2.37501C14.8935 2.40154 14.9829 2.4279 15.0723 2.45688C15.1477 2.48133 15.2221 2.50734 15.2965 2.53353C15.3845 2.5639 15.4724 2.59498 15.5592 2.62815C15.6336 2.65643 15.7069 2.68611 15.7806 2.71614C15.8088 2.72799 15.8371 2.73962 15.8654 2.75125L15.8654 2.75126L15.8654 2.75127L15.8654 2.75128C15.9225 2.77477 15.9795 2.79823 16.0362 2.82334C16.1098 2.85563 16.1825 2.88881 16.2541 2.92285C16.3391 2.96213 16.422 3.00211 16.5042 3.04366C16.54 3.06154 16.5757 3.08021 16.6114 3.09888L16.6115 3.09892L16.6116 3.09895C16.6473 3.11762 16.683 3.13629 16.7188 3.15417C16.7996 3.19747 16.8798 3.24181 16.9597 3.28755C17.0296 3.32718 17.0992 3.36804 17.1682 3.40941C17.2469 3.45655 17.3241 3.50526 17.4014 3.55502C17.4693 3.59814 17.5372 3.64213 17.6041 3.68718C17.6802 3.73833 17.7553 3.79193 17.83 3.8457C17.8958 3.89284 17.9613 3.93997 18.0259 3.98868C18.0996 4.04403 18.1729 4.10164 18.2445 4.1596L18.2717 4.18125L18.2717 4.18128L18.2717 4.1813C18.3256 4.22417 18.3796 4.26717 18.4325 4.31184C18.496 4.36477 18.558 4.41979 18.6199 4.47466L18.6199 4.47469L18.6424 4.49463C18.6667 4.51664 18.6911 4.53821 18.7154 4.5597L18.7155 4.55982L18.7157 4.55994L18.7158 4.56003L18.7159 4.56016L18.716 4.56018L18.716 4.5602C18.7522 4.59222 18.7883 4.62408 18.8236 4.65699C18.8816 4.71088 18.938 4.76665 18.9943 4.82229L18.9943 4.82232L19.0245 4.85217L19.0717 4.89839L19.0717 4.89843L19.0717 4.89845C19.1139 4.93968 19.1562 4.981 19.1974 5.02344L19.2091 5.03629ZM2 11.6255H6.28708C6.30331 9.95159 6.54616 8.28763 7.00881 6.67884C6.06518 6.42692 5.15438 6.06448 4.29543 5.59904C2.88514 7.29879 2.07786 9.41824 2 11.6255ZM11.6456 17.3566V21.9661C10.1158 21.7487 8.77443 20.152 7.93066 17.7939C9.15066 17.5207 10.3956 17.3742 11.6456 17.3566ZM11.6458 12.3406H7.00244C7.0206 13.9553 7.25733 15.5603 7.70636 17.1114C8.99933 16.8164 10.3197 16.6589 11.6458 16.6415V12.3406ZM7.93066 6.1722C8.77443 3.8141 10.1158 2.21736 11.6456 2V6.60953C10.3956 6.59208 9.15066 6.4456 7.93066 6.1722ZM11.6458 7.32463C10.3199 7.30717 8.99933 7.1497 7.70636 6.85482C7.25733 8.406 7.0206 10.0108 7.00244 11.6255H11.6458V7.32463ZM9.47033 2.29985C9.48482 2.29644 9.49931 2.29304 9.5138 2.28929C8.45599 3.31636 7.67107 4.591 7.22972 5.99779C6.38107 5.77398 5.55948 5.45781 4.77979 5.05487C4.78587 5.04868 4.79168 5.04222 4.79743 5.03583C4.80191 5.03085 4.80635 5.02591 4.81086 5.02117C4.85129 4.97937 4.89278 4.93874 4.9342 4.89817L4.93422 4.89816L4.9837 4.84956L5.01219 4.82149L5.0122 4.82147C5.06903 4.76545 5.12594 4.70937 5.18412 4.65507C5.22701 4.61456 5.27089 4.57586 5.31486 4.53708L5.36656 4.49131L5.39715 4.46417C5.45572 4.41215 5.51404 4.36036 5.57501 4.31009C5.62631 4.26672 5.67892 4.22477 5.73147 4.18288L5.73147 4.18287L5.73148 4.18286L5.76479 4.15628C5.79399 4.13365 5.82259 4.111 5.85104 4.08846L5.85105 4.08845C5.89436 4.05414 5.9373 4.02013 5.98144 3.98694C6.04656 3.93893 6.11273 3.89144 6.17925 3.84378C6.25327 3.79088 6.32764 3.73798 6.40306 3.68718C6.47063 3.64144 6.53889 3.59709 6.60768 3.5531L6.63662 3.53498C6.70353 3.49309 6.77076 3.451 6.83865 3.41011C6.90761 3.36821 6.97797 3.32719 7.04955 3.28721C7.12846 3.24216 7.2079 3.19817 7.28803 3.15522C7.35943 3.11716 7.43101 3.0798 7.50259 3.04331C7.58412 3.00211 7.66635 2.96248 7.74893 2.92355C7.82191 2.8895 7.89471 2.85564 7.96838 2.82334C8.03744 2.79405 8.10732 2.76464 8.17726 2.73522L8.17731 2.73519L8.22258 2.71614C8.2966 2.68577 8.37027 2.65609 8.445 2.62745C8.52402 2.5975 8.60391 2.56929 8.68375 2.54111L8.68376 2.5411L8.7067 2.533L8.72471 2.52673C8.79344 2.50279 8.86224 2.47883 8.93208 2.45619C9.02217 2.42756 9.11121 2.40119 9.20094 2.37501L9.25954 2.35793C9.31521 2.34165 9.37074 2.32541 9.42685 2.31041C9.44134 2.30666 9.45583 2.30325 9.47031 2.29985L9.47033 2.29985ZM4.98185 19.1139L5.01925 19.1508C5.07325 19.2041 5.12733 19.2575 5.18279 19.3093C5.21812 19.342 5.25406 19.3737 5.29022 19.4057C5.31482 19.4274 5.33952 19.4492 5.36419 19.4715L5.37253 19.4789L5.37271 19.479C5.43918 19.5382 5.50572 19.5973 5.57403 19.6543C5.63506 19.7055 5.69727 19.7549 5.75967 19.8046L5.76206 19.8065C5.83364 19.8645 5.90505 19.9221 5.98081 19.9778C6.02301 20.0094 6.06566 20.0404 6.10846 20.0716L6.10865 20.0717L6.17617 20.1209C6.2509 20.1745 6.32632 20.2281 6.40243 20.2796C6.4693 20.3247 6.53721 20.3687 6.60513 20.4119C6.68247 20.4615 6.75963 20.5102 6.83837 20.5574C6.90733 20.5989 6.97699 20.6396 7.04682 20.6794C7.12678 20.7252 7.20692 20.7695 7.28775 20.8126C7.32292 20.8302 7.35814 20.8486 7.39338 20.867L7.39357 20.8671C7.4298 20.8861 7.46606 20.905 7.50231 20.9231C7.58454 20.9647 7.66747 21.0047 7.75249 21.0441C7.82407 21.0778 7.8967 21.111 7.97037 21.1435C8.02807 21.169 8.0861 21.1929 8.14428 21.2169L8.1447 21.217C8.17176 21.2282 8.19885 21.2393 8.22596 21.2506C8.29964 21.2807 8.37296 21.3104 8.44733 21.3386C8.5341 21.372 8.62209 21.4031 8.71008 21.4334L8.72567 21.4389L8.72574 21.4389C8.7949 21.4631 8.86412 21.4873 8.93425 21.5099C9.02363 21.5389 9.11302 21.5654 9.20485 21.5918L9.22751 21.5984C9.2944 21.6181 9.36157 21.6378 9.42902 21.6559C9.44501 21.6602 9.46111 21.664 9.4772 21.6678L9.47728 21.6678L9.47729 21.6678C9.49033 21.6709 9.50335 21.674 9.51631 21.6773C8.45798 20.6496 7.67271 19.3742 7.23118 17.9666C6.38253 18.1905 5.56094 18.5067 4.78125 18.9098C4.7872 18.9159 4.79298 18.9222 4.79879 18.9286L4.81215 18.943C4.86558 19.0008 4.92317 19.0568 4.98129 19.1134L4.98141 19.1135L4.98185 19.1139ZM7.00881 17.2872C6.06518 17.5393 5.15438 17.9018 4.29543 18.3671C2.88514 16.6671 2.07804 14.5479 2 12.3406H6.28708C6.30331 14.0145 6.54616 15.6785 7.00881 17.2872Z" fill="#0F73F6"/>
    </symbol>

    <symbol id="scale" viewBox="0 0 32 32" fill="none">
        <path d="M12.756 17.787L1.96899 28.575L2 22C2 21.448 1.552 21 1 21C0.448 21 0 21.448 0 22V31C0 31.296 0.121987 31.535 0.315974 31.699C0.496993 31.884 0.74902 32 1.02902 32H10C10.552 32 11 31.5521 11 31C11 30.448 10.552 30 10 30H3.37098L14.17 19.202L12.756 17.787ZM31.684 0.30102C31.503 0.116026 31.251 0 30.972 0H22C21.448 0 21 0.448 21 1C21 1.552 21.448 2 22 2H28.628L17.83 12.799L19.244 14.213L30.032 3.42499L30 10C30 10.552 30.448 11 31 11C31.552 11 32 10.552 32 10V1C32 0.704 31.878 0.465046 31.684 0.30102Z" fill="#0F73F6"/>
    </symbol>

    <symbol id="5stars" viewBox="0 0 84 16" fill="none">
        <path d="M8 0L9.79611 5.52786H15.6085L10.9062 8.94427L12.7023 14.4721L8 11.0557L3.29772 14.4721L5.09383 8.94427L0.391548 5.52786H6.20389L8 0Z" fill="#0F73F6"/>
        <path d="M25 0L26.7961 5.52786H32.6085L27.9062 8.94427L29.7023 14.4721L25 11.0557L20.2977 14.4721L22.0938 8.94427L17.3915 5.52786H23.2039L25 0Z" fill="#0F73F6"/>
        <path d="M42 0L43.7961 5.52786H49.6085L44.9062 8.94427L46.7023 14.4721L42 11.0557L37.2977 14.4721L39.0938 8.94427L34.3915 5.52786H40.2039L42 0Z" fill="#0F73F6"/>
        <path d="M59 0L60.7961 5.52786H66.6085L61.9062 8.94427L63.7023 14.4721L59 11.0557L54.2977 14.4721L56.0938 8.94427L51.3915 5.52786H57.2039L59 0Z" fill="#0F73F6"/>
        <path d="M76 0L77.7961 5.52786H83.6085L78.9062 8.94427L80.7023 14.4721L76 11.0557L71.2977 14.4721L73.0938 8.94427L68.3915 5.52786H74.2039L76 0Z" fill="#0F73F6"/>
    </symbol>

    <symbol id="minus" viewBox="0 0 24 2" fill="none">
        <path d="M23.13 1.86988H0.87C0.39 1.86988 0 1.47988 0 0.999883C0 0.519883 0.39 0.129883 0.87 0.129883H23.13C23.61 0.129883 24 0.519883 24 0.999883C24 1.47988 23.61 1.86988 23.13 1.86988Z" fill="#222222" fill-opacity="0.15"/>
    </symbol>


    <symbol id="plus" viewBox="0 0 24 24" fill="none">
        <path d="M19 11H13V5C13 4.73478 12.8946 4.48043 12.7071 4.29289C12.5196 4.10536 12.2652 4 12 4C11.7348 4 11.4804 4.10536 11.2929 4.29289C11.1054 4.48043 11 4.73478 11 5V11H5C4.73478 11 4.48043 11.1054 4.29289 11.2929C4.10536 11.4804 4 11.7348 4 12C4 12.2652 4.10536 12.5196 4.29289 12.7071C4.48043 12.8946 4.73478 13 5 13H11V19C11 19.2652 11.1054 19.5196 11.2929 19.7071C11.4804 19.8946 11.7348 20 12 20C12.2652 20 12.5196 19.8946 12.7071 19.7071C12.8946 19.5196 13 19.2652 13 19V13H19C19.2652 13 19.5196 12.8946 19.7071 12.7071C19.8946 12.5196 20 12.2652 20 12C20 11.7348 19.8946 11.4804 19.7071 11.2929C19.5196 11.1054 19.2652 11 19 11Z" fill="#222222"/>
    </symbol>

</svg>
