

    
<svg viewBox="0 0 14 8" fill="none" xmlns="http://www.w3.org/2000/svg">
    <symbol id="cabinet" viewBox="0 0 20 20" fill="none">
        <path d="M17.0711 12.9289C15.9819 11.8398 14.6855 11.0335 13.2711 10.5454C14.786 9.50199 15.7812 7.75578 15.7812 5.78125C15.7812 2.59348 13.1878 0 10 0C6.81223 0 4.21875 2.59348 4.21875 5.78125C4.21875 7.75578 5.21402 9.50199 6.72898 10.5454C5.31453 11.0335 4.01813 11.8398 2.92895 12.9289C1.0402 14.8177 0 17.3289 0 20H1.5625C1.5625 15.3475 5.34754 11.5625 10 11.5625C14.6525 11.5625 18.4375 15.3475 18.4375 20H20C20 17.3289 18.9598 14.8177 17.0711 12.9289ZM10 10C7.67379 10 5.78125 8.1075 5.78125 5.78125C5.78125 3.455 7.67379 1.5625 10 1.5625C12.3262 1.5625 14.2188 3.455 14.2188 5.78125C14.2188 8.1075 12.3262 10 10 10Z" fill="#0F73F6"/>
    </symbol>

    <symbol id="cart" viewBox="0 0 16 19" fill="none">
        <path d="M1.52616 5.66849C1.40575 5.66849 1.30814 5.7661 1.30814 5.88651V17.2237C1.30814 17.3442 1.40575 17.4417 1.52616 17.4417H13.7355C13.8559 17.4417 13.9535 17.3442 13.9535 17.2237V5.88651C13.9535 5.7661 13.8559 5.66849 13.7355 5.66849H1.52616ZM0 5.88651C0 5.04364 0.683285 4.36035 1.52616 4.36035H13.7355C14.5783 4.36035 15.2616 5.04364 15.2616 5.88651V17.2237C15.2616 18.0666 14.5783 18.7499 13.7355 18.7499H1.52616C0.683285 18.7499 0 18.0666 0 17.2237V5.88651Z" fill="white"/>
        <path d="M7.63022 1.30814C6.30569 1.30814 5.23197 2.38188 5.23197 3.7064V6.75872C5.23197 7.11995 4.93913 7.41279 4.5779 7.41279C4.21667 7.41279 3.92383 7.11995 3.92383 6.75872V3.7064C3.92383 1.65941 5.58324 0 7.63022 0C9.6772 0 11.3366 1.65941 11.3366 3.7064V6.75872C11.3366 7.11995 11.0438 7.41279 10.6825 7.41279C10.3213 7.41279 10.0285 7.11995 10.0285 6.75872V3.7064C10.0285 2.38188 8.95476 1.30814 7.63022 1.30814Z" fill="white"/>
    </symbol>

    <symbol id="arrow-right" viewBox="0 0 12 22" fill="none">
        <path d="M12.0001 11.0001C12.0001 10.7443 11.9023 10.4883 11.7071 10.2931L1.70706 0.293063C1.31631 -0.0976875 0.683562 -0.0976875 0.293062 0.293063C-0.0974385 0.683813 -0.0976885 1.31656 0.293062 1.70706L9.58606 11.0001L0.293063 20.2931C-0.0976875 20.6838 -0.0976875 21.3166 0.293063 21.7071C0.683813 22.0976 1.31656 22.0978 1.70706 21.7071L11.7071 11.7071C11.9023 11.5118 12.0001 11.2558 12.0001 11.0001Z" fill="#0F73F6"/>
    </symbol>

    <symbol id="arrow-left" viewBox="0 0 12 22" fill="none">
        <path d="M0 11.0001C1.11792e-08 10.7443 0.0977493 10.4883 0.292999 10.2931L10.293 0.293063C10.6838 -0.0976875 11.3165 -0.0976875 11.707 0.293063C12.0975 0.683813 12.0978 1.31656 11.707 1.70706L2.414 11.0001L11.707 20.2931C12.0978 20.6838 12.0978 21.3166 11.707 21.7071C11.3163 22.0976 10.6835 22.0978 10.293 21.7071L0.292999 11.7071C0.0977492 11.5118 -1.11792e-08 11.2558 0 11.0001Z" fill="#0F73F6"/>
    </symbol>

    <symbol id="bag" viewBox="0 0 24 24" fill="none">
        <path d="M5.52616 8.66849C5.40575 8.66849 5.30814 8.7661 5.30814 8.88651V20.2237C5.30814 20.3442 5.40575 20.4417 5.52616 20.4417H17.7355C17.8559 20.4417 17.9535 20.3442 17.9535 20.2237V8.88651C17.9535 8.7661 17.8559 8.66849 17.7355 8.66849H5.52616ZM4 8.88651C4 8.04364 4.68328 7.36035 5.52616 7.36035H17.7355C18.5783 7.36035 19.2616 8.04364 19.2616 8.88651V20.2237C19.2616 21.0666 18.5783 21.7499 17.7355 21.7499H5.52616C4.68328 21.7499 4 21.0666 4 20.2237V8.88651Z" fill="#0F73F6"/>
        <path d="M11.6302 4.30814C10.3057 4.30814 9.23197 5.38188 9.23197 6.7064V9.75872C9.23197 10.12 8.93913 10.4128 8.5779 10.4128C8.21667 10.4128 7.92383 10.12 7.92383 9.75872V6.7064C7.92383 4.65941 9.58324 3 11.6302 3C13.6772 3 15.3366 4.65941 15.3366 6.7064V9.75872C15.3366 10.12 15.0438 10.4128 14.6825 10.4128C14.3213 10.4128 14.0285 10.12 14.0285 9.75872V6.7064C14.0285 5.38188 12.9548 4.30814 11.6302 4.30814Z" fill="#0F73F6"/>
    </symbol>

    <symbol id="dot-blue" viewBox="0 0 16 16" fill="none">
        <circle cx="8" cy="8" r="8" fill="#0F73F6"/>
    </symbol>

    <symbol id="dot-grey" viewBox="0 0 16 16" fill="none">
        <circle cx="8" cy="8" r="8" fill="#222222" fill-opacity="0.15"/>
    </symbol>

    <symbol id="arrow-left-black" viewBox="0 0 24 24" fill="none">
        <path d="M8.125 11.75C8.125 11.5902 8.18609 11.4302 8.30812 11.3082L14.5581 5.05816C14.8023 4.81395 15.1978 4.81395 15.4419 5.05816C15.6859 5.30238 15.6861 5.69785 15.4419 5.94191L9.63375 11.75L15.4419 17.5582C15.6861 17.8024 15.6861 18.1979 15.4419 18.4419C15.1977 18.686 14.8022 18.6861 14.5581 18.4419L8.30812 12.1919C8.18609 12.0699 8.125 11.9099 8.125 11.75Z" fill="#222222"/>
    </symbol>

    <symbol id="arrow-right-black" viewBox="0 0 24 24" fill="none">
        <path d="M15.625 11.75C15.625 11.5902 15.5639 11.4302 15.4419 11.3082L9.19191 5.05816C8.9477 4.81395 8.55223 4.81395 8.30816 5.05816C8.0641 5.30238 8.06395 5.69785 8.30816 5.94191L14.1163 11.75L8.30816 17.5582C8.06395 17.8024 8.06395 18.1979 8.30816 18.4419C8.55238 18.686 8.94785 18.6861 9.19191 18.4419L15.4419 12.1919C15.5639 12.0699 15.625 11.9099 15.625 11.75Z" fill="#222222"/>
    </symbol>


</svg>
