

    
<svg viewBox="0 0 14 8" fill="none" xmlns="http://www.w3.org/2000/svg">
    <symbol id="cabinet" viewBox="0 0 20 20" fill="none">
        <path d="M17.0711 12.9289C15.9819 11.8398 14.6855 11.0335 13.2711 10.5454C14.786 9.50199 15.7812 7.75578 15.7812 5.78125C15.7812 2.59348 13.1878 0 10 0C6.81223 0 4.21875 2.59348 4.21875 5.78125C4.21875 7.75578 5.21402 9.50199 6.72898 10.5454C5.31453 11.0335 4.01813 11.8398 2.92895 12.9289C1.0402 14.8177 0 17.3289 0 20H1.5625C1.5625 15.3475 5.34754 11.5625 10 11.5625C14.6525 11.5625 18.4375 15.3475 18.4375 20H20C20 17.3289 18.9598 14.8177 17.0711 12.9289ZM10 10C7.67379 10 5.78125 8.1075 5.78125 5.78125C5.78125 3.455 7.67379 1.5625 10 1.5625C12.3262 1.5625 14.2188 3.455 14.2188 5.78125C14.2188 8.1075 12.3262 10 10 10Z" fill="#0F73F6"/>
    </symbol>

    <symbol id="cart" viewBox="0 0 16 19" fill="none">
        <path d="M1.52616 5.66849C1.40575 5.66849 1.30814 5.7661 1.30814 5.88651V17.2237C1.30814 17.3442 1.40575 17.4417 1.52616 17.4417H13.7355C13.8559 17.4417 13.9535 17.3442 13.9535 17.2237V5.88651C13.9535 5.7661 13.8559 5.66849 13.7355 5.66849H1.52616ZM0 5.88651C0 5.04364 0.683285 4.36035 1.52616 4.36035H13.7355C14.5783 4.36035 15.2616 5.04364 15.2616 5.88651V17.2237C15.2616 18.0666 14.5783 18.7499 13.7355 18.7499H1.52616C0.683285 18.7499 0 18.0666 0 17.2237V5.88651Z" fill="white"/>
        <path d="M7.63022 1.30814C6.30569 1.30814 5.23197 2.38188 5.23197 3.7064V6.75872C5.23197 7.11995 4.93913 7.41279 4.5779 7.41279C4.21667 7.41279 3.92383 7.11995 3.92383 6.75872V3.7064C3.92383 1.65941 5.58324 0 7.63022 0C9.6772 0 11.3366 1.65941 11.3366 3.7064V6.75872C11.3366 7.11995 11.0438 7.41279 10.6825 7.41279C10.3213 7.41279 10.0285 7.11995 10.0285 6.75872V3.7064C10.0285 2.38188 8.95476 1.30814 7.63022 1.30814Z" fill="white"/>
    </symbol>

    <symbol id="arrow-right" viewBox="0 0 12 22" fill="none">
        <path d="M12.0001 11.0001C12.0001 10.7443 11.9023 10.4883 11.7071 10.2931L1.70706 0.293063C1.31631 -0.0976875 0.683562 -0.0976875 0.293062 0.293063C-0.0974385 0.683813 -0.0976885 1.31656 0.293062 1.70706L9.58606 11.0001L0.293063 20.2931C-0.0976875 20.6838 -0.0976875 21.3166 0.293063 21.7071C0.683813 22.0976 1.31656 22.0978 1.70706 21.7071L11.7071 11.7071C11.9023 11.5118 12.0001 11.2558 12.0001 11.0001Z" fill="#0F73F6"/>
    </symbol>

    <symbol id="arrow-left" viewBox="0 0 12 22" fill="none">
        <path d="M0 11.0001C1.11792e-08 10.7443 0.0977493 10.4883 0.292999 10.2931L10.293 0.293063C10.6838 -0.0976875 11.3165 -0.0976875 11.707 0.293063C12.0975 0.683813 12.0978 1.31656 11.707 1.70706L2.414 11.0001L11.707 20.2931C12.0978 20.6838 12.0978 21.3166 11.707 21.7071C11.3163 22.0976 10.6835 22.0978 10.293 21.7071L0.292999 11.7071C0.0977492 11.5118 -1.11792e-08 11.2558 0 11.0001Z" fill="#0F73F6"/>
    </symbol>

    <symbol id="bag" viewBox="0 0 24 24" fill="none">
        <path d="M5.52616 8.66849C5.40575 8.66849 5.30814 8.7661 5.30814 8.88651V20.2237C5.30814 20.3442 5.40575 20.4417 5.52616 20.4417H17.7355C17.8559 20.4417 17.9535 20.3442 17.9535 20.2237V8.88651C17.9535 8.7661 17.8559 8.66849 17.7355 8.66849H5.52616ZM4 8.88651C4 8.04364 4.68328 7.36035 5.52616 7.36035H17.7355C18.5783 7.36035 19.2616 8.04364 19.2616 8.88651V20.2237C19.2616 21.0666 18.5783 21.7499 17.7355 21.7499H5.52616C4.68328 21.7499 4 21.0666 4 20.2237V8.88651Z" fill="#0F73F6"/>
        <path d="M11.6302 4.30814C10.3057 4.30814 9.23197 5.38188 9.23197 6.7064V9.75872C9.23197 10.12 8.93913 10.4128 8.5779 10.4128C8.21667 10.4128 7.92383 10.12 7.92383 9.75872V6.7064C7.92383 4.65941 9.58324 3 11.6302 3C13.6772 3 15.3366 4.65941 15.3366 6.7064V9.75872C15.3366 10.12 15.0438 10.4128 14.6825 10.4128C14.3213 10.4128 14.0285 10.12 14.0285 9.75872V6.7064C14.0285 5.38188 12.9548 4.30814 11.6302 4.30814Z" fill="#0F73F6"/>
    </symbol>

    <symbol id="dot-blue" viewBox="0 0 16 16" fill="none">
        <circle cx="8" cy="8" r="8" fill="#0F73F6"/>
    </symbol>

    <symbol id="dot-grey" viewBox="0 0 16 16" fill="none">
        <circle cx="8" cy="8" r="8" fill="#222222" fill-opacity="0.15"/>
    </symbol>

    <symbol id="arrow-left-black" viewBox="0 0 24 24" fill="none">
        <path d="M8.125 11.75C8.125 11.5902 8.18609 11.4302 8.30812 11.3082L14.5581 5.05816C14.8023 4.81395 15.1978 4.81395 15.4419 5.05816C15.6859 5.30238 15.6861 5.69785 15.4419 5.94191L9.63375 11.75L15.4419 17.5582C15.6861 17.8024 15.6861 18.1979 15.4419 18.4419C15.1977 18.686 14.8022 18.6861 14.5581 18.4419L8.30812 12.1919C8.18609 12.0699 8.125 11.9099 8.125 11.75Z" fill="#222222"/>
    </symbol>

    <symbol id="arrow-right-black" viewBox="0 0 24 24" fill="none">
        <path d="M15.625 11.75C15.625 11.5902 15.5639 11.4302 15.4419 11.3082L9.19191 5.05816C8.9477 4.81395 8.55223 4.81395 8.30816 5.05816C8.0641 5.30238 8.06395 5.69785 8.30816 5.94191L14.1163 11.75L8.30816 17.5582C8.06395 17.8024 8.06395 18.1979 8.30816 18.4419C8.55238 18.686 8.94785 18.6861 9.19191 18.4419L15.4419 12.1919C15.5639 12.0699 15.625 11.9099 15.625 11.75Z" fill="#222222"/>
    </symbol>

    <symbol id="telephone" viewBox="0 0 24 24" fill="none">
        <g clip-path="url(#clip0_64_6133)">
            <path d="M20.6789 16.7041C19.2291 15.4641 17.7577 14.713 16.3257 15.9511L15.4706 16.6995C14.8449 17.2427 13.6817 19.7808 9.1842 14.6071C4.68766 9.43998 7.36348 8.63546 7.99006 8.09692L8.84984 7.34765C10.2744 6.10667 9.73679 4.54445 8.70936 2.93633L8.08934 1.96228C7.05722 0.357912 5.93332 -0.695747 4.50502 0.543356L3.73328 1.2177C3.10202 1.67756 1.33749 3.17235 0.909472 6.01208C0.39435 9.41938 2.01933 13.3212 5.74225 17.6023C9.4605 21.8853 13.101 24.0367 16.5495 23.9992C19.4155 23.9683 21.1463 22.4304 21.6876 21.8713L22.4622 21.196C23.8867 19.9578 23.0016 18.6972 21.5509 17.4543L20.6789 16.7041Z" fill="#0F73F6"/>
        </g>

        <defs>
            <clipPath id="clip0_64_6133">
                <rect width="24" height="24" fill="white"/>
            </clipPath>
        </defs>
    </symbol>

    <symbol id="mail" viewBox="0 0 24 24" fill="none">
        <g clip-path="url(#clip0_64_6128)">
            <path d="M14.0057 14.7041C13.4086 15.1021 12.7151 15.3126 12 15.3126C11.285 15.3126 10.5914 15.1021 9.99431 14.7041L0.159797 8.14752C0.105234 8.11115 0.0520781 8.07323 0 8.03423V18.7778C0 20.0096 0.999609 20.9872 2.20936 20.9872H21.7906C23.0224 20.9872 24 19.9876 24 18.7778V8.03418C23.9478 8.07327 23.8945 8.11129 23.8398 8.14771L14.0057 14.7041Z" fill="#0F73F6"/>
            <path d="M0.939844 6.97795L10.7744 13.5345C11.1466 13.7827 11.5733 13.9068 12 13.9068C12.4267 13.9068 12.8534 13.7827 13.2256 13.5345L23.0602 6.97795C23.6487 6.58584 24 5.92959 24 5.2213C24 4.00345 23.0092 3.0127 21.7914 3.0127H2.20861C0.990797 3.01274 0 4.00349 0 5.22248C0 5.92959 0.351375 6.58584 0.939844 6.97795Z" fill="#0F73F6"/>
        </g>

        <defs>
            <clipPath id="clip0_64_6128">
                <rect width="24" height="24" fill="white"/>
            </clipPath>
        </defs>
    </symbol>

    <symbol id="clock" viewBox="0 0 24 24" fill="none">
        <path d="M12 1C9.82441 1 7.69767 1.64514 5.88873 2.85383C4.07979 4.06253 2.66989 5.78049 1.83733 7.79048C1.00477 9.80047 0.786929 12.0122 1.21137 14.146C1.6358 16.2798 2.68345 18.2398 4.22183 19.7782C5.76021 21.3166 7.72022 22.3642 9.85401 22.7886C11.9878 23.2131 14.1995 22.9952 16.2095 22.1627C18.2195 21.3301 19.9375 19.9202 21.1462 18.1113C22.3549 16.3023 23 14.1756 23 12C22.9966 9.08367 21.8365 6.28778 19.7744 4.22563C17.7122 2.16347 14.9163 1.00344 12 1ZM15.707 15.707C15.5195 15.8945 15.2652 15.9998 15 15.9998C14.7348 15.9998 14.4805 15.8945 14.293 15.707L11.293 12.707C11.1055 12.5195 11.0001 12.2652 11 12V6C11 5.73478 11.1054 5.48043 11.2929 5.29289C11.4804 5.10536 11.7348 5 12 5C12.2652 5 12.5196 5.10536 12.7071 5.29289C12.8946 5.48043 13 5.73478 13 6V11.586L15.707 14.293C15.8945 14.4805 15.9998 14.7348 15.9998 15C15.9998 15.2652 15.8945 15.5195 15.707 15.707Z" fill="#0F73F6"/>
    </symbol>
</svg>
