<svg width="136" height="136" viewBox="0 0 136 136" fill="none" xmlns="http://www.w3.org/2000/svg">
<g filter="url(#filter0_d_55_9199)">
<rect x="40" y="36" width="56" height="56" rx="5" fill="white" shape-rendering="crispEdges"/>
<g clip-path="url(#clip0_55_9199)">
<mask id="mask0_55_9199" style="mask-type:luminance" maskUnits="userSpaceOnUse" x="52" y="48" width="32" height="32">
<path d="M52 48H84V80H52V48Z" fill="white"/>
</mask>
<g mask="url(#mask0_55_9199)">
<path d="M76.2803 67.6991L83.375 71.3906L68 79.3906L52.625 71.3906L59.7196 67.6991" stroke="#0F73F6" stroke-width="1.4" stroke-miterlimit="10" stroke-linecap="round" stroke-linejoin="round"/>
</g>
<path d="M56.4688 66L63.4905 62.3464" stroke="#0F73F6" stroke-width="1.4" stroke-miterlimit="10" stroke-linecap="round" stroke-linejoin="round"/>
<path d="M60.3125 67.9922L67.3156 64.3483" stroke="#0F73F6" stroke-width="1.4" stroke-miterlimit="10" stroke-linecap="round" stroke-linejoin="round"/>
<path d="M64.25 69.9482L79.4375 62.0207" stroke="#0F73F6" stroke-width="1.4" stroke-miterlimit="10" stroke-linecap="round" stroke-linejoin="round"/>
<mask id="mask1_55_9199" style="mask-type:luminance" maskUnits="userSpaceOnUse" x="52" y="48" width="32" height="32">
<path d="M52 48H84V80H52V48Z" fill="white"/>
</mask>
<g mask="url(#mask1_55_9199)">
<path d="M76.321 60.3374L83.375 64.0078L68 72.0078L52.625 64.0078L59.7196 60.3164" stroke="#0F73F6" stroke-width="1.4" stroke-miterlimit="10" stroke-linecap="round" stroke-linejoin="round"/>
<path d="M78.1821 53.923L83.375 56.625L68 64.625L52.625 56.625L68 48.625L73.1927 51.3269" stroke="#0F73F6" stroke-width="1.4" stroke-miterlimit="10" stroke-linecap="round" stroke-linejoin="round"/>
</g>
</g>
</g>
<defs>
<filter id="filter0_d_55_9199" x="0" y="0" width="136" height="136" filterUnits="userSpaceOnUse" color-interpolation-filters="sRGB">
<feFlood flood-opacity="0" result="BackgroundImageFix"/>
<feColorMatrix in="SourceAlpha" type="matrix" values="0 0 0 0 0 0 0 0 0 0 0 0 0 0 0 0 0 0 127 0" result="hardAlpha"/>
<feOffset dy="4"/>
<feGaussianBlur stdDeviation="20"/>
<feComposite in2="hardAlpha" operator="out"/>
<feColorMatrix type="matrix" values="0 0 0 0 0.111813 0 0 0 0 0.225177 0 0 0 0 0.373682 0 0 0 0.08 0"/>
<feBlend mode="normal" in2="BackgroundImageFix" result="effect1_dropShadow_55_9199"/>
<feBlend mode="normal" in="SourceGraphic" in2="effect1_dropShadow_55_9199" result="shape"/>
</filter>
<clipPath id="clip0_55_9199">
<rect width="32" height="32" fill="white" transform="translate(52 48)"/>
</clipPath>
</defs>
</svg>
