<svg width="64" height="40" viewBox="0 0 64 40" fill="none" xmlns="http://www.w3.org/2000/svg">
<path d="M0 0H44C55.0457 0 64 8.95431 64 20V40H20C8.95431 40 0 31.0457 0 20V0Z" fill="#0F73F6"/>
<path d="M26.68 13.952C27.3947 13.952 28.0507 14.096 28.648 14.384C29.2453 14.672 29.768 15.088 30.216 15.632C30.664 16.176 31.0107 16.8267 31.256 17.584C31.5013 18.3307 31.624 19.168 31.624 20.096C31.624 21.3227 31.4107 22.3893 30.984 23.296C30.5573 24.2027 29.9707 24.9067 29.224 25.408C28.488 25.8987 27.64 26.144 26.68 26.144C25.72 26.144 24.8613 25.8987 24.104 25.408C23.3573 24.9067 22.7707 24.208 22.344 23.312C21.928 22.4053 21.72 21.3387 21.72 20.112C21.72 19.1733 21.8427 18.3307 22.088 17.584C22.3333 16.8267 22.68 16.176 23.128 15.632C23.576 15.088 24.0987 14.672 24.696 14.384C25.304 14.096 25.9653 13.952 26.68 13.952ZM26.68 24.16C27.1493 24.16 27.5387 24.0267 27.848 23.76C28.1573 23.4933 28.3867 23.0613 28.536 22.464C28.696 21.8667 28.776 21.0827 28.776 20.112C28.776 19.0987 28.696 18.288 28.536 17.68C28.376 17.0613 28.1413 16.6133 27.832 16.336C27.5227 16.048 27.1333 15.904 26.664 15.904C26.2053 15.904 25.8213 16.048 25.512 16.336C25.2027 16.6133 24.9627 17.0613 24.792 17.68C24.632 18.2987 24.552 19.1093 24.552 20.112C24.552 21.0827 24.632 21.8667 24.792 22.464C24.9627 23.0613 25.2027 23.4933 25.512 23.76C25.8213 24.0267 26.2107 24.16 26.68 24.16ZM33.3681 15.984C33.2828 15.888 33.2828 15.7707 33.3681 15.632C33.6561 15.2907 34.0188 14.9973 34.4561 14.752C34.8935 14.496 35.3735 14.304 35.8961 14.176C36.4188 14.0373 36.9575 13.968 37.5121 13.968C38.4508 13.968 39.2508 14.1013 39.9121 14.368C40.5841 14.624 41.0961 14.9867 41.4481 15.456C41.8108 15.9147 41.9921 16.4533 41.9921 17.072C41.9921 17.5733 41.8321 18.0587 41.5121 18.528C41.1921 18.9867 40.7228 19.312 40.1041 19.504C39.9868 19.5467 39.9228 19.6 39.9121 19.664C39.9121 19.7173 39.9708 19.76 40.0881 19.792C40.5361 19.9307 40.9308 20.1387 41.2721 20.416C41.6135 20.6827 41.8801 20.9973 42.0721 21.36C42.2641 21.7227 42.3601 22.1227 42.3601 22.56C42.3601 23.3173 42.1735 23.968 41.8001 24.512C41.4268 25.0453 40.8668 25.456 40.1201 25.744C39.3735 26.0213 38.4401 26.16 37.3201 26.16C36.7121 26.16 36.1255 26.08 35.5601 25.92C34.9948 25.76 34.4828 25.5307 34.0241 25.232C33.5655 24.9333 33.1868 24.5813 32.8881 24.176C32.8241 24.0907 32.8028 24.0107 32.8241 23.936C32.8455 23.8507 32.8988 23.776 32.9841 23.712L34.2321 22.832C34.3175 22.768 34.3868 22.7413 34.4401 22.752C34.5041 22.752 34.5521 22.7733 34.5841 22.816C34.9148 23.1467 35.2241 23.4133 35.5121 23.616C35.8001 23.808 36.0988 23.952 36.4081 24.048C36.7281 24.144 37.0855 24.192 37.4801 24.192C38.1521 24.192 38.6748 24.048 39.0481 23.76C39.4215 23.472 39.6081 23.0933 39.6081 22.624C39.6081 22.2613 39.5068 21.952 39.3041 21.696C39.1015 21.44 38.8295 21.2427 38.4881 21.104C38.1575 20.9653 37.7895 20.896 37.3841 20.896L36.0081 20.864C35.8268 20.864 35.7361 20.7893 35.7361 20.64V19.136C35.7361 19.008 35.8268 18.9333 36.0081 18.912L37.1121 18.864C37.5388 18.8533 37.9121 18.7787 38.2321 18.64C38.5521 18.4907 38.8028 18.2987 38.9841 18.064C39.1655 17.8187 39.2561 17.5467 39.2561 17.248C39.2561 16.992 39.1761 16.7627 39.0161 16.56C38.8668 16.3573 38.6588 16.1973 38.3921 16.08C38.1255 15.952 37.8215 15.888 37.4801 15.888C36.9895 15.888 36.5415 15.984 36.1361 16.176C35.7308 16.3573 35.3148 16.656 34.8881 17.072C34.8241 17.136 34.7655 17.1733 34.7121 17.184C34.6695 17.184 34.6108 17.1467 34.5361 17.072L33.3681 15.984Z" fill="white"/>
</svg>
