<svg width="152" height="32" viewBox="0 0 152 32" fill="none" xmlns="http://www.w3.org/2000/svg">
<rect width="152" height="32" rx="16" fill="#0F73F6"/>
<path d="M20.672 10.304C20.672 10.2507 20.6827 10.208 20.704 10.176C20.736 10.144 20.7893 10.128 20.864 10.128H29.472C29.536 10.128 29.584 10.144 29.616 10.176C29.648 10.208 29.664 10.2507 29.664 10.304V11.136C29.664 11.2427 29.6 11.296 29.472 11.296H26.224C26.1067 11.296 26.048 11.3493 26.048 11.456V21.792C26.048 21.9307 25.984 22 25.856 22H24.704C24.576 22 24.512 21.9307 24.512 21.792V11.472C24.512 11.3547 24.4587 11.296 24.352 11.296H20.864C20.736 11.296 20.672 11.2427 20.672 11.136V10.304ZM39.8121 10.128C39.8868 10.128 39.9348 10.1493 39.9561 10.192C39.9881 10.2347 39.9828 10.288 39.9401 10.352L36.1321 16.72C36.0895 16.784 36.0628 16.848 36.0521 16.912C36.0415 16.976 36.0361 17.088 36.0361 17.248V21.728C36.0361 21.9093 35.9348 22 35.7321 22H34.7721C34.6655 22 34.5961 21.9787 34.5641 21.936C34.5321 21.8933 34.5161 21.8347 34.5161 21.76V17.312C34.5161 17.2053 34.5055 17.1253 34.4841 17.072C34.4628 17.0187 34.4308 16.9547 34.3881 16.88L30.5321 10.384C30.4895 10.3093 30.4788 10.2507 30.5001 10.208C30.5321 10.1547 30.6015 10.128 30.7081 10.128H31.8601C31.9561 10.128 32.0255 10.144 32.0681 10.176C32.1108 10.1973 32.1535 10.2453 32.1961 10.32L35.1721 15.44C35.2361 15.5573 35.2948 15.6213 35.3481 15.632C35.4015 15.632 35.4601 15.5787 35.5241 15.472L38.4841 10.32C38.5268 10.2347 38.5695 10.1813 38.6121 10.16C38.6548 10.1387 38.7241 10.128 38.8201 10.128H39.8121ZM50.801 13.584C50.801 14.3733 50.6197 15.024 50.257 15.536C49.8943 16.048 49.3983 16.4267 48.769 16.672C48.1397 16.9173 47.409 17.04 46.577 17.04H43.857C43.761 17.04 43.713 17.088 43.713 17.184V21.76C43.713 21.92 43.633 22 43.473 22H42.385C42.3103 22 42.257 21.984 42.225 21.952C42.193 21.92 42.177 21.8667 42.177 21.792V10.352C42.177 10.2027 42.241 10.128 42.369 10.128H46.401C47.2437 10.128 47.9957 10.2453 48.657 10.48C49.3183 10.7147 49.841 11.088 50.225 11.6C50.609 12.112 50.801 12.7733 50.801 13.584ZM49.233 13.536C49.233 12.992 49.1103 12.5547 48.865 12.224C48.6303 11.8933 48.2943 11.6587 47.857 11.52C47.4303 11.3707 46.9183 11.296 46.321 11.296H43.921C43.7823 11.296 43.713 11.36 43.713 11.488V15.648C43.713 15.7973 43.761 15.872 43.857 15.872H46.433C47.2757 15.872 47.953 15.6853 48.465 15.312C48.977 14.9387 49.233 14.3467 49.233 13.536ZM57.7839 22.16C56.7385 22.16 55.8319 21.9253 55.0639 21.456C54.3065 20.9867 53.7252 20.304 53.3199 19.408C52.9145 18.5013 52.7119 17.4027 52.7119 16.112C52.7119 14.8107 52.9199 13.7013 53.3359 12.784C53.7519 11.8667 54.3385 11.168 55.0959 10.688C55.8532 10.208 56.7545 9.968 57.7999 9.968C58.8452 9.968 59.7412 10.208 60.4879 10.688C61.2452 11.168 61.8265 11.8613 62.2319 12.768C62.6479 13.6747 62.8559 14.784 62.8559 16.096C62.8559 17.3867 62.6532 18.4853 62.2479 19.392C61.8425 20.288 61.2559 20.976 60.4879 21.456C59.7305 21.9253 58.8292 22.16 57.7839 22.16ZM57.8159 20.992C58.9679 20.992 59.8265 20.5973 60.3919 19.808C60.9679 19.008 61.2559 17.776 61.2559 16.112C61.2559 14.416 60.9625 13.1627 60.3759 12.352C59.7999 11.5413 58.9412 11.136 57.7999 11.136C56.6479 11.136 55.7785 11.5467 55.1919 12.368C54.6052 13.1787 54.3119 14.4267 54.3119 16.112C54.3119 17.7653 54.6052 18.992 55.1919 19.792C55.7785 20.592 56.6532 20.992 57.8159 20.992ZM69.8906 22.16C68.8666 22.16 67.9813 21.92 67.2346 21.44C66.488 20.9493 65.9173 20.256 65.5226 19.36C65.128 18.4533 64.9306 17.3707 64.9306 16.112C64.9306 14.8213 65.1386 13.7173 65.5546 12.8C65.9706 11.8827 66.5573 11.184 67.3146 10.704C68.072 10.2133 68.952 9.968 69.9546 9.968C70.7013 9.968 71.384 10.1173 72.0026 10.416C72.632 10.7147 73.1493 11.1093 73.5546 11.6C73.9706 12.0907 74.2213 12.6133 74.3066 13.168C74.3173 13.2533 74.312 13.312 74.2906 13.344C74.28 13.376 74.2426 13.4027 74.1786 13.424L73.0266 13.6C72.9733 13.6107 72.9306 13.6053 72.8986 13.584C72.8773 13.552 72.8613 13.504 72.8506 13.44C72.776 13.0133 72.6053 12.6293 72.3386 12.288C72.072 11.936 71.7306 11.6587 71.3146 11.456C70.9093 11.2427 70.4506 11.136 69.9386 11.136C69.2133 11.136 68.5946 11.3227 68.0826 11.696C67.5706 12.0587 67.1813 12.608 66.9146 13.344C66.6586 14.0693 66.5306 14.96 66.5306 16.016C66.5306 17.1253 66.6586 18.0533 66.9146 18.8C67.1813 19.536 67.5706 20.0853 68.0826 20.448C68.6053 20.8107 69.2346 20.992 69.9706 20.992C70.4933 20.992 70.9466 20.9067 71.3306 20.736C71.7146 20.5547 72.0346 20.32 72.2906 20.032C72.5466 19.7333 72.744 19.4187 72.8826 19.088C73.0213 18.7467 73.096 18.416 73.1066 18.096L73.1226 17.136C73.144 17.0293 73.0906 16.976 72.9626 16.976H70.3546C70.2906 16.976 70.2426 16.9653 70.2106 16.944C70.1893 16.912 70.1786 16.864 70.1786 16.8V16.112C70.1786 16.016 70.232 15.968 70.3386 15.968L74.3066 15.984C74.3813 15.984 74.44 16 74.4826 16.032C74.5253 16.064 74.5466 16.112 74.5466 16.176V21.792C74.5466 21.8667 74.5306 21.92 74.4986 21.952C74.4666 21.984 74.4186 22 74.3546 22H73.9866C73.912 22 73.848 21.9893 73.7946 21.968C73.752 21.9467 73.72 21.8933 73.6986 21.808L73.5226 20.32C73.512 20.2773 73.4906 20.256 73.4586 20.256C73.4373 20.256 73.4106 20.2827 73.3786 20.336C73.176 20.656 72.92 20.9547 72.6106 21.232C72.3013 21.5093 71.9226 21.7333 71.4746 21.904C71.0266 22.0747 70.4986 22.16 69.8906 22.16ZM85.7508 21.696C85.7828 21.7707 85.7774 21.84 85.7348 21.904C85.7028 21.968 85.6494 22 85.5748 22H84.4068C84.2894 22 84.2041 21.936 84.1508 21.808L82.0868 16.768C82.0334 16.6507 81.9054 16.592 81.7028 16.592H78.9988C78.9241 16.592 78.8708 16.608 78.8388 16.64C78.8174 16.672 78.8068 16.7147 78.8068 16.768V21.744C78.8068 21.9147 78.7161 22 78.5348 22H77.4948C77.4094 22 77.3508 21.984 77.3188 21.952C77.2868 21.9093 77.2708 21.856 77.2708 21.792V10.352C77.2708 10.2027 77.3348 10.128 77.4628 10.128H81.9268C83.1854 10.128 84.1614 10.3893 84.8548 10.912C85.5588 11.424 85.9108 12.1867 85.9108 13.2C85.9108 13.808 85.7934 14.3253 85.5588 14.752C85.3241 15.168 85.0254 15.504 84.6628 15.76C84.3108 16.0053 83.9481 16.1867 83.5748 16.304C83.4894 16.3147 83.4681 16.368 83.5108 16.464L85.7508 21.696ZM81.4788 15.472C82.4174 15.472 83.1214 15.3013 83.5908 14.96C84.0708 14.6187 84.3108 14.08 84.3108 13.344C84.3108 12.6293 84.0974 12.1013 83.6708 11.76C83.2548 11.4187 82.6468 11.248 81.8468 11.248H79.0308C78.8814 11.248 78.8068 11.3067 78.8068 11.424V15.264C78.8068 15.4027 78.8548 15.472 78.9508 15.472H81.4788ZM87.38 22C87.316 22 87.268 21.9787 87.236 21.936C87.2147 21.8827 87.2147 21.8133 87.236 21.728L91.38 10.352C91.412 10.2773 91.4493 10.224 91.492 10.192C91.5347 10.1493 91.604 10.128 91.7 10.128H92.948C93.14 10.128 93.2627 10.208 93.316 10.368L97.412 21.728C97.4333 21.792 97.428 21.856 97.396 21.92C97.3747 21.9733 97.3267 22 97.252 22H96.116C95.988 22 95.9027 21.9467 95.86 21.84L94.756 18.736C94.7347 18.6933 94.7133 18.6613 94.692 18.64C94.6707 18.6187 94.628 18.608 94.564 18.608H89.908C89.812 18.608 89.748 18.6507 89.716 18.736L88.58 21.856C88.5693 21.8987 88.5427 21.936 88.5 21.968C88.468 21.9893 88.4147 22 88.34 22H87.38ZM94.148 17.392C94.276 17.392 94.3187 17.3227 94.276 17.184L92.356 11.92C92.3133 11.824 92.2707 11.776 92.228 11.776C92.196 11.776 92.164 11.824 92.132 11.92L90.18 17.216C90.1267 17.3333 90.1587 17.392 90.276 17.392H94.148ZM108.301 13.584C108.301 14.3733 108.12 15.024 107.757 15.536C107.394 16.048 106.898 16.4267 106.269 16.672C105.64 16.9173 104.909 17.04 104.077 17.04H101.357C101.261 17.04 101.213 17.088 101.213 17.184V21.76C101.213 21.92 101.133 22 100.973 22H99.885C99.8103 22 99.757 21.984 99.725 21.952C99.693 21.92 99.677 21.8667 99.677 21.792V10.352C99.677 10.2027 99.741 10.128 99.869 10.128H103.901C104.744 10.128 105.496 10.2453 106.157 10.48C106.818 10.7147 107.341 11.088 107.725 11.6C108.109 12.112 108.301 12.7733 108.301 13.584ZM106.733 13.536C106.733 12.992 106.61 12.5547 106.365 12.224C106.13 11.8933 105.794 11.6587 105.357 11.52C104.93 11.3707 104.418 11.296 103.821 11.296H101.421C101.282 11.296 101.213 11.36 101.213 11.488V15.648C101.213 15.7973 101.261 15.872 101.357 15.872H103.933C104.776 15.872 105.453 15.6853 105.965 15.312C106.477 14.9387 106.733 14.3467 106.733 13.536ZM112.388 16.448C112.303 16.448 112.26 16.4907 112.26 16.576V21.76C112.26 21.92 112.169 22 111.988 22H110.948C110.863 22 110.804 21.984 110.772 21.952C110.74 21.9093 110.724 21.8507 110.724 21.776V10.352C110.724 10.2027 110.788 10.128 110.916 10.128H112.068C112.196 10.128 112.26 10.1973 112.26 10.336V15.04C112.26 15.168 112.319 15.232 112.436 15.232H117.684C117.791 15.232 117.844 15.168 117.844 15.04V10.32C117.844 10.192 117.903 10.128 118.02 10.128H119.188C119.316 10.128 119.38 10.2027 119.38 10.352V21.776C119.38 21.8507 119.364 21.9093 119.332 21.952C119.3 21.984 119.241 22 119.156 22H118.116C117.935 22 117.844 21.92 117.844 21.76V16.592C117.844 16.496 117.796 16.448 117.7 16.448H112.388ZM130.922 10.128C130.996 10.128 131.044 10.1493 131.066 10.192C131.098 10.2347 131.092 10.288 131.05 10.352L127.242 16.72C127.199 16.784 127.172 16.848 127.162 16.912C127.151 16.976 127.146 17.088 127.146 17.248V21.728C127.146 21.9093 127.044 22 126.842 22H125.882C125.775 22 125.706 21.9787 125.674 21.936C125.642 21.8933 125.626 21.8347 125.626 21.76V17.312C125.626 17.2053 125.615 17.1253 125.594 17.072C125.572 17.0187 125.54 16.9547 125.498 16.88L121.642 10.384C121.599 10.3093 121.588 10.2507 121.61 10.208C121.642 10.1547 121.711 10.128 121.818 10.128H122.97C123.066 10.128 123.135 10.144 123.178 10.176C123.22 10.1973 123.263 10.2453 123.306 10.32L126.282 15.44C126.346 15.5573 126.404 15.6213 126.458 15.632C126.511 15.632 126.57 15.5787 126.634 15.472L129.594 10.32C129.636 10.2347 129.679 10.1813 129.722 10.16C129.764 10.1387 129.834 10.128 129.93 10.128H130.922Z" fill="white"/>
</svg>
