<svg width="80" height="56" viewBox="0 0 80 56" fill="none" xmlns="http://www.w3.org/2000/svg">
<path d="M0 0H60C71.0457 0 80 8.95431 80 20V56H20C8.95431 56 0 47.0457 0 36V0Z" fill="#0F73F6"/>
<path d="M33.912 39.336C32.2507 39.336 30.7947 38.888 29.544 37.992C28.2933 37.096 27.3133 35.836 26.604 34.212C25.9133 32.588 25.568 30.7027 25.568 28.556C25.568 26.3907 25.9133 24.5053 26.604 22.9C27.2947 21.2947 28.2653 20.044 29.516 19.148C30.7667 18.252 32.2227 17.804 33.884 17.804C35.5827 17.804 37.048 18.252 38.28 19.148C39.5307 20.044 40.5107 21.304 41.22 22.928C41.9293 24.5333 42.284 26.4093 42.284 28.556C42.284 30.7027 41.9293 32.588 41.22 34.212C40.5293 35.8173 39.5587 37.0773 38.308 37.992C37.0573 38.888 35.592 39.336 33.912 39.336ZM33.94 35.864C34.892 35.864 35.704 35.5747 36.376 34.996C37.048 34.3987 37.5613 33.5587 37.916 32.476C38.2893 31.3747 38.476 30.068 38.476 28.556C38.476 27.044 38.2893 25.7467 37.916 24.664C37.5613 23.5627 37.0387 22.7227 36.348 22.144C35.676 21.5653 34.8547 21.276 33.884 21.276C32.9507 21.276 32.148 21.5653 31.476 22.144C30.804 22.7227 30.2813 23.5627 29.908 24.664C29.5533 25.7467 29.376 27.044 29.376 28.556C29.376 30.0493 29.5533 31.3467 29.908 32.448C30.2813 33.5307 30.804 34.3707 31.476 34.968C32.1667 35.5653 32.988 35.864 33.94 35.864ZM48.6682 39V21.388H44.6362V18.14H52.4762V39H48.6682Z" fill="white"/>
</svg>
