<svg width="56" height="56" viewBox="0 0 56 56" fill="none" xmlns="http://www.w3.org/2000/svg">
<path d="M0 0H36C47.0457 0 56 8.95431 56 20V56H20C8.95431 56 0 47.0457 0 36V0Z" fill="#0F73F6"/>
<g clip-path="url(#clip0_2016_3437)">
<path d="M39.2968 17.7322H36.217C36.2282 17.391 36.2344 17.0479 36.2344 16.7031C36.2344 16.3148 35.9195 16 35.5313 16H20.4687C20.0805 16 19.7656 16.3148 19.7656 16.7031C19.7656 17.0479 19.7718 17.391 19.783 17.7322H16.7031C16.3148 17.7322 16 18.0469 16 18.4353C16 21.5858 16.8234 24.5582 18.3185 26.805C19.7963 29.0263 21.7649 30.3003 23.8915 30.4243C24.3736 30.9489 24.8832 31.3766 25.414 31.7029V34.828H24.2344C22.8084 34.828 21.6484 35.9881 21.6484 37.414V38.5935H21.5984C21.2101 38.5935 20.8953 38.9085 20.8953 39.2966C20.8953 39.685 21.2101 39.9998 21.5984 39.9998H34.4015C34.7899 39.9998 35.1046 39.685 35.1046 39.2966C35.1046 38.9085 34.7899 38.5935 34.4015 38.5935H34.3515V37.414C34.3515 35.9881 33.1916 34.828 31.7655 34.828H30.586V31.7029C31.1168 31.3768 31.6266 30.9489 32.1087 30.4243C34.2351 30.3003 36.2036 29.0263 37.6817 26.805C39.1767 24.5582 40 21.5858 40 18.4353C40 18.0469 39.6852 17.7322 39.2968 17.7322ZM19.4893 26.0261C18.256 24.1729 17.5315 21.749 17.4211 19.1384H19.8615C20.1151 22.3475 20.8684 25.3138 22.0458 27.6684C22.2333 28.0434 22.4294 28.3977 22.6328 28.7313C21.4633 28.2896 20.381 27.3664 19.4893 26.0261ZM32.9453 37.414V38.5937H23.0547V37.414C23.0547 36.7636 23.5838 36.2342 24.2344 36.2342H31.7655C32.4161 36.2342 32.9453 36.7636 32.9453 37.414ZM29.1797 34.828H26.8202V32.3139C27.2068 32.4157 27.6006 32.4687 28 32.4687C28.3993 32.4687 28.7932 32.4157 29.1797 32.3139V34.828ZM29.6151 30.6411C29.5835 30.6541 29.5531 30.6698 29.524 30.6872C29.027 30.9344 28.5163 31.0624 28 31.0624C27.4838 31.0624 26.9733 30.9344 26.4765 30.6876C26.4471 30.6698 26.4165 30.6541 26.3844 30.6407C25.8331 30.3492 25.2997 29.909 24.7953 29.3306C24.7687 29.2927 24.7389 29.2577 24.7057 29.2259C24.2049 28.6313 23.7338 27.9 23.3035 27.0394C22.0113 24.4552 21.265 21.0574 21.18 17.4062H34.8199C34.7348 21.0574 33.9884 24.4554 32.6964 27.0394C32.2661 27.9 31.795 28.6313 31.2944 29.2259C31.2611 29.2577 31.2309 29.2929 31.2045 29.3308C30.7 29.9094 30.1665 30.3494 29.6151 30.6411ZM36.5107 26.0261C35.619 27.3664 34.5366 28.2896 33.3672 28.7313C33.5706 28.3977 33.7667 28.0434 33.9542 27.6684C35.1316 25.3138 35.8847 22.3475 36.1384 19.1384H38.5789C38.4685 21.749 37.7439 24.1729 36.5107 26.0261Z" fill="white"/>
</g>
<defs>
<clipPath id="clip0_2016_3437">
<rect width="24" height="24" fill="white" transform="translate(16 16)"/>
</clipPath>
</defs>
</svg>
