<svg width="64" height="40" viewBox="0 0 64 40" fill="none" xmlns="http://www.w3.org/2000/svg">
<path d="M0 0H44C55.0457 0 64 8.95431 64 20V40H20C8.95431 40 0 31.0457 0 20V0Z" fill="#0F73F6"/>
<path d="M26.68 13.952C27.3947 13.952 28.0507 14.096 28.648 14.384C29.2453 14.672 29.768 15.088 30.216 15.632C30.664 16.176 31.0107 16.8267 31.256 17.584C31.5013 18.3307 31.624 19.168 31.624 20.096C31.624 21.3227 31.4107 22.3893 30.984 23.296C30.5573 24.2027 29.9707 24.9067 29.224 25.408C28.488 25.8987 27.64 26.144 26.68 26.144C25.72 26.144 24.8613 25.8987 24.104 25.408C23.3573 24.9067 22.7707 24.208 22.344 23.312C21.928 22.4053 21.72 21.3387 21.72 20.112C21.72 19.1733 21.8427 18.3307 22.088 17.584C22.3333 16.8267 22.68 16.176 23.128 15.632C23.576 15.088 24.0987 14.672 24.696 14.384C25.304 14.096 25.9653 13.952 26.68 13.952ZM26.68 24.16C27.1493 24.16 27.5387 24.0267 27.848 23.76C28.1573 23.4933 28.3867 23.0613 28.536 22.464C28.696 21.8667 28.776 21.0827 28.776 20.112C28.776 19.0987 28.696 18.288 28.536 17.68C28.376 17.0613 28.1413 16.6133 27.832 16.336C27.5227 16.048 27.1333 15.904 26.664 15.904C26.2053 15.904 25.8213 16.048 25.512 16.336C25.2027 16.6133 24.9627 17.0613 24.792 17.68C24.632 18.2987 24.552 19.1093 24.552 20.112C24.552 21.0827 24.632 21.8667 24.792 22.464C24.9627 23.0613 25.2027 23.4933 25.512 23.76C25.8213 24.0267 26.2107 24.16 26.68 24.16ZM36.6321 20.864C37.1441 20.416 37.5601 20.0373 37.8801 19.728C38.2001 19.408 38.4508 19.1307 38.6321 18.896C38.8135 18.6613 38.9361 18.4427 39.0001 18.24C39.0748 18.0267 39.1121 17.8027 39.1121 17.568C39.1121 17.2373 39.0321 16.96 38.8721 16.736C38.7121 16.5013 38.4988 16.32 38.2321 16.192C37.9761 16.064 37.6775 16 37.3361 16C37.0481 16 36.7708 16.0533 36.5041 16.16C36.2481 16.2667 35.9921 16.4427 35.7361 16.688C35.4908 16.9333 35.2455 17.264 35.0001 17.68C34.9681 17.744 34.9148 17.7867 34.8401 17.808C34.7655 17.8187 34.6748 17.7973 34.5681 17.744L33.1441 17.008C33.0375 16.944 32.9735 16.864 32.9521 16.768C32.9415 16.672 32.9681 16.576 33.0321 16.48C33.5868 15.616 34.2321 14.9813 34.9681 14.576C35.7148 14.1707 36.5575 13.968 37.4961 13.968C38.3495 13.968 39.1015 14.112 39.7521 14.4C40.4028 14.688 40.9095 15.104 41.2721 15.648C41.6455 16.1813 41.8321 16.8213 41.8321 17.568C41.8321 17.9947 41.7575 18.4 41.6081 18.784C41.4588 19.168 41.2135 19.552 40.8721 19.936C40.5415 20.32 40.0935 20.736 39.5281 21.184L36.5681 23.504C36.4935 23.5467 36.4561 23.5893 36.4561 23.632C36.4668 23.6747 36.5361 23.696 36.6641 23.696H41.6401C41.8428 23.696 41.9441 23.7813 41.9441 23.952V25.712C41.9441 25.7973 41.9175 25.8667 41.8641 25.92C41.8215 25.9733 41.7415 26 41.6241 26H33.2881C33.1495 26 33.0535 25.9787 33.0001 25.936C32.9468 25.8827 32.9201 25.792 32.9201 25.664V24.432C32.9201 24.3787 32.9308 24.32 32.9521 24.256C32.9841 24.192 33.0535 24.1067 33.1601 24C33.2668 23.8827 33.4321 23.7333 33.6561 23.552L36.6321 20.864Z" fill="white"/>
</svg>
