<svg width="149" height="32" viewBox="0 0 149 32" fill="none" xmlns="http://www.w3.org/2000/svg">
<rect x="0.5" width="148" height="32" rx="16" fill="#0F73F6"/>
<path d="M30.452 18.048C30.452 18.9973 30.2867 19.776 29.956 20.384C29.636 20.992 29.156 21.44 28.516 21.728C27.876 22.016 27.0973 22.16 26.18 22.16C25.1773 22.16 24.3613 22 23.732 21.68C23.1027 21.36 22.6387 20.8747 22.34 20.224C22.0413 19.5733 21.892 18.7573 21.892 17.776V10.352C21.892 10.2027 21.956 10.128 22.084 10.128H23.236C23.364 10.128 23.428 10.1973 23.428 10.336V18.112C23.428 19.0827 23.668 19.8027 24.148 20.272C24.628 20.7413 25.3373 20.976 26.276 20.976C26.8947 20.976 27.4173 20.8747 27.844 20.672C28.2813 20.4587 28.6067 20.1387 28.82 19.712C29.044 19.2853 29.156 18.736 29.156 18.064V10.336C29.156 10.1973 29.2147 10.128 29.332 10.128H30.276C30.3933 10.128 30.452 10.192 30.452 10.32V18.048ZM34.7398 10.128C34.8678 10.128 34.9318 10.1973 34.9318 10.336V21.728C34.9318 21.8347 34.9104 21.9093 34.8678 21.952C34.8251 21.984 34.7504 22 34.6438 22H33.6358C33.5398 22 33.4758 21.984 33.4438 21.952C33.4118 21.92 33.3958 21.8613 33.3958 21.776V10.352C33.3958 10.2027 33.4598 10.128 33.5878 10.128H34.7398ZM36.8204 22.688C36.6924 22.688 36.6497 22.6453 36.6924 22.56L40.6924 10.272C40.7244 10.176 40.7937 10.128 40.9004 10.128H41.6044C41.743 10.128 41.7857 10.2133 41.7324 10.384L37.7964 22.496C37.775 22.5707 37.7377 22.6187 37.6844 22.64C37.6417 22.672 37.583 22.688 37.5084 22.688H36.8204ZM51.9051 18.048C51.9051 18.9973 51.7398 19.776 51.4091 20.384C51.0891 20.992 50.6091 21.44 49.9691 21.728C49.3291 22.016 48.5505 22.16 47.6331 22.16C46.6305 22.16 45.8145 22 45.1851 21.68C44.5558 21.36 44.0918 20.8747 43.7931 20.224C43.4945 19.5733 43.3451 18.7573 43.3451 17.776V10.352C43.3451 10.2027 43.4091 10.128 43.5371 10.128H44.6891C44.8171 10.128 44.8811 10.1973 44.8811 10.336V18.112C44.8811 19.0827 45.1211 19.8027 45.6011 20.272C46.0811 20.7413 46.7905 20.976 47.7291 20.976C48.3478 20.976 48.8705 20.8747 49.2971 20.672C49.7345 20.4587 50.0598 20.1387 50.2731 19.712C50.4971 19.2853 50.6091 18.736 50.6091 18.064V10.336C50.6091 10.1973 50.6678 10.128 50.7851 10.128H51.7291C51.8465 10.128 51.9051 10.192 51.9051 10.32V18.048ZM63.3018 21.664C63.3978 21.792 63.4244 21.8827 63.3818 21.936C63.3498 21.9787 63.2858 22 63.1898 22H61.9738C61.8564 22 61.7711 21.9573 61.7178 21.872L58.6778 17.296C58.6138 17.1893 58.5551 17.136 58.5018 17.136C58.4591 17.136 58.3951 17.2 58.3098 17.328L55.3178 21.872C55.2964 21.9147 55.2591 21.9467 55.2057 21.968C55.1524 21.9893 55.0991 22 55.0458 22H53.9898C53.9044 22 53.8458 21.9787 53.8138 21.936C53.7818 21.8827 53.8138 21.792 53.9098 21.664L57.5738 16.144C57.6271 16.0693 57.6484 16.0053 57.6378 15.952C57.6378 15.888 57.6111 15.8187 57.5578 15.744L53.9898 10.368C53.9578 10.3253 53.9471 10.2773 53.9578 10.224C53.9684 10.16 54.0111 10.128 54.0858 10.128H55.3818C55.4671 10.128 55.5258 10.1387 55.5578 10.16C55.6004 10.1813 55.6324 10.2187 55.6538 10.272L58.4538 14.544C58.5071 14.6187 58.5551 14.656 58.5978 14.656C58.6511 14.656 58.7044 14.6187 58.7578 14.544L61.5578 10.272C61.5898 10.2187 61.6218 10.1813 61.6538 10.16C61.6964 10.1387 61.7498 10.128 61.8138 10.128H62.9818C63.0564 10.128 63.0938 10.1547 63.0938 10.208C63.1044 10.2507 63.0938 10.2933 63.0618 10.336L59.5098 15.632C59.4671 15.696 59.4458 15.7547 59.4458 15.808C59.4458 15.8507 59.4671 15.9093 59.5098 15.984L63.3018 21.664ZM69.3233 10.128C69.3979 10.128 69.5526 10.128 69.7873 10.128C70.0219 10.128 70.2779 10.1333 70.5553 10.144C70.8326 10.144 71.0886 10.144 71.3233 10.144C71.5579 10.144 71.7233 10.144 71.8193 10.144C73.3019 10.1653 74.4966 10.4 75.4033 10.848C76.3206 11.296 76.9873 11.9467 77.4033 12.8C77.8299 13.6533 78.0433 14.7093 78.0433 15.968C78.0433 17.3013 77.8139 18.416 77.3553 19.312C76.8966 20.208 76.1926 20.88 75.2433 21.328C74.2939 21.776 73.0993 22 71.6593 22H69.3073C69.1579 22 69.0833 21.9147 69.0833 21.744V10.352C69.0833 10.2773 69.0993 10.224 69.1313 10.192C69.1739 10.1493 69.2379 10.128 69.3233 10.128ZM70.7793 11.296C70.6726 11.296 70.6193 11.3707 70.6193 11.52V20.672C70.6193 20.7893 70.6833 20.848 70.8113 20.848H71.4193C72.6033 20.848 73.5633 20.6933 74.2993 20.384C75.0353 20.064 75.5739 19.552 75.9153 18.848C76.2673 18.144 76.4433 17.2107 76.4433 16.048C76.4433 14.832 76.2619 13.8827 75.8993 13.2C75.5473 12.5067 75.0033 12.016 74.2673 11.728C73.5419 11.44 72.6193 11.296 71.4993 11.296H70.7793ZM80.6301 10.352C80.6301 10.2027 80.6941 10.128 80.8221 10.128H88.0061C88.1128 10.128 88.1661 10.1867 88.1661 10.304V11.12C88.1661 11.248 88.0968 11.312 87.9581 11.312H82.3741C82.2355 11.312 82.1661 11.376 82.1661 11.504V15.248C82.1661 15.3653 82.2248 15.424 82.3421 15.424H86.4861C86.6035 15.424 86.6621 15.4827 86.6621 15.6V16.448C86.6621 16.4907 86.6515 16.528 86.6301 16.56C86.6088 16.5813 86.5608 16.592 86.4861 16.592H82.3421C82.2248 16.592 82.1661 16.6507 82.1661 16.768V20.656C82.1661 20.7627 82.2195 20.816 82.3261 20.816H88.1981C88.3155 20.816 88.3741 20.8693 88.3741 20.976V21.824C88.3741 21.8773 88.3581 21.92 88.3261 21.952C88.3048 21.984 88.2621 22 88.1981 22H80.8541C80.7048 22 80.6301 21.9253 80.6301 21.776V10.352ZM97.093 12.336C96.8157 12.0053 96.4583 11.7227 96.021 11.488C95.5837 11.2533 95.0343 11.136 94.373 11.136C93.573 11.136 92.9437 11.312 92.485 11.664C92.0263 12.016 91.797 12.5067 91.797 13.136C91.797 13.3067 91.8343 13.504 91.909 13.728C91.9943 13.952 92.1597 14.1707 92.405 14.384C92.6503 14.5973 93.0183 14.7893 93.509 14.96L95.829 15.728C96.7997 16.048 97.4877 16.4747 97.893 17.008C98.2983 17.5307 98.501 18.1493 98.501 18.864C98.501 19.5467 98.3303 20.1387 97.989 20.64C97.6477 21.1307 97.1623 21.5093 96.533 21.776C95.9037 22.032 95.1463 22.16 94.261 22.16C93.621 22.16 93.029 22.0853 92.485 21.936C91.941 21.776 91.4557 21.552 91.029 21.264C90.613 20.9653 90.2557 20.5973 89.957 20.16C89.9037 20.0853 89.8823 20.0213 89.893 19.968C89.9143 19.904 89.9677 19.84 90.053 19.776L90.629 19.376C90.7357 19.312 90.8157 19.28 90.869 19.28C90.933 19.28 90.9863 19.312 91.029 19.376C91.317 19.7387 91.5997 20.0427 91.877 20.288C92.1543 20.5227 92.4743 20.6987 92.837 20.816C93.2103 20.9333 93.6637 20.992 94.197 20.992C95.0397 20.992 95.7223 20.8427 96.245 20.544C96.7677 20.2347 97.029 19.728 97.029 19.024C97.029 18.7573 96.9757 18.5173 96.869 18.304C96.7623 18.08 96.581 17.8773 96.325 17.696C96.069 17.504 95.701 17.3173 95.221 17.136L92.789 16.304C92.2023 16.1013 91.7277 15.84 91.365 15.52C91.0023 15.2 90.7357 14.848 90.565 14.464C90.405 14.08 90.325 13.6853 90.325 13.28C90.325 12.608 90.4957 12.0267 90.837 11.536C91.1783 11.0347 91.6477 10.6507 92.245 10.384C92.853 10.1067 93.5623 9.968 94.373 9.968C94.917 9.968 95.413 10.032 95.861 10.16C96.3197 10.288 96.7357 10.4693 97.109 10.704C97.493 10.9387 97.829 11.2213 98.117 11.552C98.1597 11.5947 98.1863 11.6427 98.197 11.696C98.2077 11.7493 98.181 11.8027 98.117 11.856L97.381 12.432C97.3277 12.464 97.285 12.4747 97.253 12.464C97.221 12.4427 97.1677 12.4 97.093 12.336ZM102.271 10.128C102.399 10.128 102.463 10.1973 102.463 10.336V21.728C102.463 21.8347 102.442 21.9093 102.399 21.952C102.356 21.984 102.282 22 102.175 22H101.167C101.071 22 101.007 21.984 100.975 21.952C100.943 21.92 100.927 21.8613 100.927 21.776V10.352C100.927 10.2027 100.991 10.128 101.119 10.128H102.271ZM110.016 22.16C108.992 22.16 108.106 21.92 107.36 21.44C106.613 20.9493 106.042 20.256 105.648 19.36C105.253 18.4533 105.056 17.3707 105.056 16.112C105.056 14.8213 105.264 13.7173 105.68 12.8C106.096 11.8827 106.682 11.184 107.44 10.704C108.197 10.2133 109.077 9.968 110.08 9.968C110.826 9.968 111.509 10.1173 112.128 10.416C112.757 10.7147 113.274 11.1093 113.68 11.6C114.096 12.0907 114.346 12.6133 114.432 13.168C114.442 13.2533 114.437 13.312 114.416 13.344C114.405 13.376 114.368 13.4027 114.304 13.424L113.152 13.6C113.098 13.6107 113.056 13.6053 113.024 13.584C113.002 13.552 112.986 13.504 112.976 13.44C112.901 13.0133 112.73 12.6293 112.464 12.288C112.197 11.936 111.856 11.6587 111.44 11.456C111.034 11.2427 110.576 11.136 110.064 11.136C109.338 11.136 108.72 11.3227 108.208 11.696C107.696 12.0587 107.306 12.608 107.04 13.344C106.784 14.0693 106.656 14.96 106.656 16.016C106.656 17.1253 106.784 18.0533 107.04 18.8C107.306 19.536 107.696 20.0853 108.208 20.448C108.73 20.8107 109.36 20.992 110.096 20.992C110.618 20.992 111.072 20.9067 111.456 20.736C111.84 20.5547 112.16 20.32 112.416 20.032C112.672 19.7333 112.869 19.4187 113.008 19.088C113.146 18.7467 113.221 18.416 113.232 18.096L113.248 17.136C113.269 17.0293 113.216 16.976 113.088 16.976H110.48C110.416 16.976 110.368 16.9653 110.336 16.944C110.314 16.912 110.304 16.864 110.304 16.8V16.112C110.304 16.016 110.357 15.968 110.464 15.968L114.432 15.984C114.506 15.984 114.565 16 114.608 16.032C114.65 16.064 114.672 16.112 114.672 16.176V21.792C114.672 21.8667 114.656 21.92 114.624 21.952C114.592 21.984 114.544 22 114.48 22H114.112C114.037 22 113.973 21.9893 113.92 21.968C113.877 21.9467 113.845 21.8933 113.824 21.808L113.648 20.32C113.637 20.2773 113.616 20.256 113.584 20.256C113.562 20.256 113.536 20.2827 113.504 20.336C113.301 20.656 113.045 20.9547 112.736 21.232C112.426 21.5093 112.048 21.7333 111.6 21.904C111.152 22.0747 110.624 22.16 110.016 22.16ZM126.228 10.128C126.345 10.128 126.404 10.192 126.404 10.32V21.808C126.404 21.872 126.382 21.92 126.34 21.952C126.308 21.984 126.26 22 126.196 22H125.412C125.348 22 125.289 21.9947 125.236 21.984C125.182 21.9733 125.129 21.936 125.076 21.872L118.9 12.896C118.846 12.8213 118.804 12.7893 118.772 12.8C118.74 12.8107 118.724 12.848 118.724 12.912V21.792C118.724 21.9307 118.649 22 118.5 22H117.604C117.465 22 117.396 21.9307 117.396 21.792V10.352C117.396 10.2027 117.465 10.128 117.604 10.128H118.516C118.601 10.128 118.665 10.1387 118.708 10.16C118.75 10.1707 118.798 10.2133 118.852 10.288L124.852 19.072C124.916 19.1467 124.969 19.1733 125.012 19.152C125.065 19.1307 125.092 19.088 125.092 19.024V10.32C125.092 10.192 125.156 10.128 125.284 10.128H126.228Z" fill="white"/>
</svg>
